<?xml version="1.0" encoding="UTF-8"?>
<svg width="208px" height="208px" viewBox="0 0 208 208" version="1.1" xmlns="http://www.w3.org/2000/svg" xmlns:xlink="http://www.w3.org/1999/xlink">
    <!-- Generator: Sketch 61.2 (89653) - https://sketch.com -->
    <title>Group 3</title>
    <desc>Created with Sketch.</desc>
    <g id="Final-Export" stroke="none" stroke-width="1" fill="none" fill-rule="evenodd">
        <g id="Stars" transform="translate(-108.000000, -54.000000)">
            <g id="Group-3" transform="translate(88.000000, 54.000000)">
                <circle id="Oval" fill="#E1D6B2" cx="124" cy="104" r="104"></circle>
                <g id="Group-4" transform="translate(0.975477, 12.707256)" fill="#DACB9D">
                    <path d="M164.800589,38.8311017 C170.033373,39.1028341 172.838109,31.249574 184.453775,35.734592 C196.06944,40.21961 181.44641,32.4532911 183.62009,28.8356806 C185.79377,25.2180701 175.486157,21.8656294 174.319705,19.8011474 C172.332384,16.2838239 171.874113,11.3560348 167.001873,11.3560348 C165.250062,11.3560348 164.258304,13.3289918 161.846726,14.0729212 C159.435147,14.8168506 157.866668,13.517441 155.402908,14.2167049 C152.939149,14.9159688 151.518341,17.6248326 150.914632,18.0766199 C147.164079,20.883357 141.030748,13.952954 141.030748,18.0950896 C141.030748,22.2372253 147.787283,37.9476205 164.800589,38.8311017 Z" id="Oval" transform="translate(165.009867, 25.097026) scale(-1, 1) rotate(-31.000000) translate(-165.009867, -25.097026) "></path>
                    <path d="M57.0122673,104.292744 C61.844161,96.792744 62.1442271,109.34764 66.5261271,108.702744 C70.9080272,108.057849 83.3321868,77.9310478 79.3225643,61.3235952 C77.8838794,55.3647071 72.4077366,67.8916737 69.5307798,66.9971673 C64.6562204,65.4815643 69.8296776,59.6327192 69.5307798,53.5206153 C69.3041985,48.8872987 63.9471317,48.3399551 61.844161,48.1777026 C42.1374431,46.6572512 30.8702801,66.9971673 27.8352314,76.0883899 C24.8001828,85.1796125 24.6770084,107.174979 36.0824366,117.950527 C47.4878648,128.726074 52.1803736,111.792744 57.0122673,104.292744 Z" id="Oval"></path>
                    <path d="M99.6004551,92.2705057 C105.666075,92.0604759 109.156247,92.8712531 109.595629,86.1872878 C109.905751,81.4696352 138.952302,90.6312273 143.725185,94.7662549 C148.498067,98.9012825 141.150477,58.5777812 133.46406,53.4432371 C126.579419,48.8442811 114.864475,63.1598246 110.481902,64.4392188 C106.099328,65.7186131 99.6290211,58.894723 100.146825,43.1967753 C100.664628,27.4988275 105.691968,10.9458357 104.469313,11.0182113 C91.3805149,11.8014233 82.9593173,48.2776376 82.9593173,65.2673244 C82.9593173,82.2570113 86.4732742,92.7250509 99.6004551,92.2705057 Z" id="Oval" transform="translate(114.100085, 53.040734) rotate(77.000000) translate(-114.100085, -53.040734) "></path>
                    <path d="M26.7087899,167.974709 C35.6834486,174.67977 36.8252065,162.425928 41.6063499,163.98292 C50.8007549,166.977101 38.9797831,189.17357 58.3439381,176.787707 C64.4244247,172.898455 58.4228184,163.018231 60.4205538,160.528169 C62.4182892,158.038106 70.298373,158.279796 72.7497119,151.726078 C74.652903,146.637848 61.9041135,141.03683 63.8189758,138.265586 C65.7338382,135.494342 74.9326484,143.02166 75.1200974,135.23746 C75.1871431,132.453254 67.3310572,125.739947 66.6256284,123.107251 C64.8058829,116.315868 83.5941372,116.986785 82.3927145,112.503014 C81.9721863,110.933582 61.5517412,110.775338 60.6807666,100.920725 C59.2745185,85.0097765 76.3983477,73.9311414 112.052254,67.6848194 C77.7386857,70.2445634 51.377401,83.3238717 32.9684001,106.922744 C25.5253939,116.464085 22.5499853,129.488573 21.7561194,135.13 C20.5577188,143.646161 19.9289929,162.909452 26.7087899,167.974709 Z" id="Oval" transform="translate(66.526127, 124.100117) rotate(-75.000000) translate(-66.526127, -124.100117) "></path>
                    <path d="M27.8352314,69.3551673 C30.2383527,54.8626057 35.0279409,42.7578466 42.2039959,33.04089 C49.3800509,23.3239334 60.3086931,14.0123715 74.9899226,5.10620433 C70.5621669,8.25043645 67.8513202,10.6459497 66.8573823,12.292744 C62.1253887,20.1328923 60.0925473,25.9792985 58.019508,27.4931566 C53.930222,30.4793995 56.8844271,35.3340456 59.7380729,34.7557667 C62.5917187,34.1774877 66.2890404,32.5495162 66.8573823,29.3387198 C67.4257242,26.1279233 71.931562,34.943929 64.4364407,40.0632976 C56.9413194,45.1826661 52.7722394,43.7241143 42.2039959,51.0203725 C35.1585002,55.8845446 30.368912,61.9961429 27.8352314,69.3551673 Z" id="Path-3"></path>
                    <path d="M87.067128,0 C76.6945508,7.47723411 71.2829765,12.4546864 70.8324051,14.9323569 C69.8605864,20.2763415 75.2905393,23.1680586 78.0725109,23.7011267 C85.1475763,25.0568171 82.4208496,17.5840331 88.1238029,14.2546649 C93.8267562,10.9252966 100.077667,12.045355 100.701921,13.2450778 C101.326174,14.4448006 94.1050159,13.2450912 93.4115102,17.4146318 C92.7180045,21.5841724 107.802608,22.1230846 101.854204,22.1230846 C99.04039,22.1230846 93.1978567,23.0056515 85.6137781,25.4421553 C78.0296995,27.8786592 76.1521379,31.0554668 74.2063155,31.260318 C69.6649948,31.7384168 73.453492,25.9825683 68.6861715,25.4421553 C65.5079578,25.0818801 61.9524033,25.7655471 58.019508,27.4931566 C53.6148874,22.3778294 57.885853,15.6900537 70.8324051,7.42982939 C75.5225728,4.43738502 80.9341471,1.96077522 87.067128,0 Z" id="Path-6"></path>
                    <path d="M65.6209252,120.77459 C62.2717385,118.693169 68.422729,111.718087 71.8401375,106.280729 C75.2575461,100.843371 75.5114242,97.702365 77.4704101,96.0062243 C78.7070838,94.9354802 78.2101324,99.0477959 79.6087453,98.4008778 C84.5701434,96.1060195 92.7946368,91.5842736 100.260735,87.6185534 C103.967092,85.6498708 113.286059,79.0261308 117.501152,84.7685521 C119.83499,87.9480518 112.282635,100.910913 117.501152,106.280729 C122.719669,111.650545 129.138661,109.872655 132.802149,109.487638 C153.472419,107.315281 156.927913,115.768816 157.996149,129.436017 C159.425629,147.725014 145.684957,136.38754 138.151078,136.874971 C133.505437,137.175537 133.250725,140.874988 131.907592,142.261346 C128.386289,145.895974 117.403786,134.368469 115.995028,136.874971 C112.986467,142.227888 112.986467,136.874971 103.449235,136.874971 C100.422713,135.192417 105.114387,128.986882 96.8904994,124.100117 C88.6666116,119.213353 84.0901138,128.406516 82.2090938,127.57444 C80.3280739,126.742364 87.0473122,120.651883 83.0014441,117.504377 C78.9555761,114.356872 68.9701119,122.856011 65.6209252,120.77459 Z" id="Rectangle"></path>
                    <path d="M125.11232,171.970208 C135.049415,171.970208 139.133648,168.454049 139.133648,164.588056 C139.133648,160.722063 133.237207,155.364036 126.333647,155.364036 C119.430088,155.364036 120.415351,147.517128 118.97784,147.729238 C116.480843,148.097681 120.519496,156.30582 117.534587,158.471442 C114.000944,161.035184 107.162022,157.048928 107.162022,160.914921 C107.162022,164.780914 115.175226,171.970208 125.11232,171.970208 Z" id="Oval"></path>
                    <path d="M130.151988,153.746496 C135.381576,153.746496 135.243051,157.607877 138.22139,157.630104 C140.613982,157.647961 140.829505,161.537561 147.500567,159.847611 C154.17163,158.157662 157.996149,153.13097 157.996149,151.155786 C157.996149,144.102659 140.425178,140.841155 137.651626,141.38646 C134.878074,141.931765 136.144147,144.102659 134.503835,145.292744 C132.822256,146.51277 130.738443,146.211119 127.076473,145.292744 C124.243454,144.58226 120.309626,140.48792 118.637237,141.38646 C116.964848,142.285 122.169368,147.122039 122.169442,147.725014 C122.169442,151.591008 124.922401,153.746496 130.151988,153.746496 Z" id="Oval"></path>
                    <path d="M128.725021,59.6919 C139.722086,60.2276616 141.083808,54.3010144 143.938609,56.4474694 C147.73411,59.3012135 143.734209,67.3918648 145.73416,67.3918648 C147.73411,67.3918648 164.668708,61.2225184 161.36674,56.4474694 C158.099529,51.7226844 150.227786,54.1080359 150.227786,48.5851884 C150.227786,43.0623409 143.847844,38.2384342 132.802149,38.2384342 C121.756454,38.2384342 105.265037,44.6881264 105.265037,50.2109739 C105.265037,53.4514719 114.406721,57.3617295 118.38631,63.7300357 C124.28397,73.1677217 121.486316,59.3392404 128.725021,59.6919 Z" id="Oval"></path>
                    <path d="M170.9104,48.5270452 C162.463902,48.5270452 160.366347,51.3507529 160.366347,52.8151495 C160.366347,53.4836197 163.193548,54.3742234 164.51331,57.316944 C166.084708,60.8207487 157.441938,63.3542759 160.366347,64.4474422 C174.378477,69.6852828 181.374225,61.9245912 182.223432,59.9650006 C183.397615,57.25551 179.356899,48.5270452 170.9104,48.5270452 Z" id="Oval"></path>
                </g>
            </g>
        </g>
    </g>
</svg>