<?xml version="1.0" encoding="UTF-8"?>
<svg width="176px" height="280px" viewBox="0 0 176 280" version="1.1" xmlns="http://www.w3.org/2000/svg" xmlns:xlink="http://www.w3.org/1999/xlink">
    <!-- Generator: Sketch 61.2 (89653) - https://sketch.com -->
    <title>Group 2</title>
    <desc>Created with Sketch.</desc>
    <g id="Final-Export" stroke="none" stroke-width="1" fill="none" fill-rule="evenodd">
        <g id="Night-Fox" transform="translate(-94.000000, -12.000000)">
            <g id="Group-2" transform="translate(95.000000, 13.000000)">
                <path d="M83.0219621,111.624819 C74.6198299,118.401374 69.1124224,124.778441 66.4997396,130.75602 C62.5807154,139.722388 47.4215313,185.457185 47.4215313,191.391895 C47.4215313,197.326605 47.4215313,198.920928 47.4215313,203.067525 C47.4215313,205.831923 46.2438195,211.70245 43.8883959,220.679107 L60.3321707,261.05844 L102.311659,262.505836 L142.263994,261.05844 C145.272961,206.016383 143.311797,169.753516 136.380502,152.269839 C129.449207,134.786161 111.663027,121.237822 83.0219621,111.624819 Z" id="Path-2" stroke="#292929" fill="#000012"></path>
                <path d="M154.391072,174.222587 C153.152274,185.20565 152.624934,194.400765 152.809054,201.807931 C153.085233,212.91868 154.391072,220.77997 154.391072,222.739868 C154.391072,224.699765 154.391072,241.834261 152.809054,246.980948 C151.754375,250.412073 148.645679,255.029173 143.482966,260.832247 C141.386395,243.070718 140.404523,229.973755 140.537349,221.541359 C140.670175,213.108962 142.394073,204.110354 145.709042,194.545534 L154.391072,174.222587 Z" id="Path-5" stroke="#292929" fill="#000012"></path>
                <path d="M90.983344,51.2095773 C90.3509678,47.0783031 90.3509678,44.0628809 90.983344,42.1633105 C91.9319083,39.3139551 88.9215857,38.2838168 87.9722036,35.9945609 C87.0228214,33.7053051 89.149329,25.2595551 86.6477068,18.2160382 C84.1460845,11.1725213 88.624908,2.45166349 90.983344,0.149401531 C93.3417801,-2.15286043 117.792569,22.9148112 130.760249,22.9148112 C143.727929,22.9148112 165.432582,3.2808422 169.751117,5.55521919 C174.069653,7.82959618 174.094825,20.1081484 173.478302,23.9644514 C172.861779,27.8207543 169.765892,40.9397082 168.784059,43.1032376 C167.802226,45.2667669 166.246419,45.7497681 165.432582,47.3502423 C164.890024,48.4172251 164.134539,51.7585034 163.166126,57.3740772 L127.726411,34.9776919 L90.983344,51.2095773 Z" id="Path-9" stroke="#292929" fill="#000012"></path>
                <path d="M79.7033738,98.4997513 C78.7123392,105.227694 86.4942389,117.291566 84.9051804,123.699003 C83.3161219,130.106441 79.7033738,133.299541 79.7033738,136.209577 C79.7033738,139.119613 85.5833244,159.250205 87.2555786,162.319401 C88.9278327,165.388597 93.936596,176.291812 94.8851097,179.564054 C95.8336234,182.836296 94.8851097,184.011746 94.8851097,188.640232 C94.8851097,191.725889 96.1540133,198.394211 98.6918204,208.645197 C100.506536,219.740972 101.966071,228.090068 103.070424,233.692484 C104.726953,242.096108 106.809474,246.02811 106.809474,249.8263 C106.809474,253.624491 105.420711,267.337259 106.809474,270.145404 C108.198237,272.953549 109.839912,274.181524 113.338716,274.831702 C116.83752,275.48188 122.040168,275.48188 124.046801,274.831702 C126.053435,274.181524 126.892281,272.595682 127.801961,270.145404 C128.408415,268.511885 128.408415,263.052324 127.801961,253.766721 C125.900833,239.061881 124.649113,230.491546 124.046801,228.055717 C123.143333,224.401972 117.258756,214.644239 117.737666,202.496168 C118.216576,190.348096 114.415718,178.893464 115.329708,175.413033 C116.243698,171.932603 120.291642,170.51153 124.046801,170.51153 C127.801961,170.51153 129.935092,173.932008 129.935092,176.223006 C129.935092,185.778267 124.046801,196.0866 124.046801,199.780056 C124.046801,203.473512 126.996107,207.452766 127.801961,211.57227 C128.607816,215.691775 127.801961,229.425189 127.801961,231.430689 C127.801961,233.436189 129.935092,240.945471 129.935092,243.703442 C129.935092,246.461414 130.97073,264.607265 130.97073,267.695126 C130.97073,270.782987 125.694851,278.084047 142.69257,278.084047 C159.690289,278.084047 147.248955,270.782987 146.079972,267.695126 C144.910989,264.607265 144.910989,250.218291 144.910989,238.368031 C144.910989,230.467858 145.30065,222.822042 146.079972,215.430583 C148.012695,200.135693 149.342815,191.205576 150.070333,188.640232 C150.797851,186.074888 152.393243,181.450344 154.85651,174.7666 C159.227253,162.316074 161.726092,154.291561 162.353027,150.69306 C163.29343,145.295308 162.353027,127.628173 162.353027,124.976788 C162.353027,122.325402 167.05635,117.015109 167.05635,114.319964 C167.05635,111.624819 165.660598,92.9876778 165.660598,90.8832376 C165.660598,88.7787974 167.332583,87.4222522 167.05635,77.9733678 C166.780116,68.5244834 166.234635,64.1151796 164.57063,58.9333703 C162.906626,53.751561 147.743665,28.9359808 128.711641,27.2713324 C109.679618,25.606684 96.7319254,42.2095773 90.911309,51.2095773 C85.0906926,60.2095773 80.6944085,91.7718086 79.7033738,98.4997513 Z" id="Path" stroke="#292929" fill="#000012"></path>
                <path d="M106.226585,63.2115135 C101.780018,61.4945573 90.1927661,61.4493035 90.1927661,69.7501304 C90.1927661,78.0509572 109.993619,97.7337569 109.234092,111.624819 C108.816507,119.262079 108.816507,127.844546 104.639208,132.525882 C100.461909,137.207218 93.7593171,126.453357 90.1927661,137.608277 C87.2038759,146.956477 102.418046,172.299199 105.350629,171.165188 C108.283212,170.031176 101.003625,144.128753 110.837457,144.128753 C120.67129,144.128753 119.756119,166.838815 123.351488,166.838815 C126.946858,166.838815 126.946858,145.879549 136.196323,144.128753 C145.445789,142.377956 137.135872,170.136967 139.230199,173.088575 C141.324525,176.040184 154.465501,154.902611 154.391072,140.642075 C154.314924,126.052298 147.370405,138.999466 142.451119,132.525882 C137.531833,126.052298 137.709132,119.883584 137.709132,111.624819 C137.709132,98.9814777 160.847568,85.9206629 161.899364,75.2025074 C162.95116,64.4843519 146.608804,62.268839 143.458275,64.7287162 C140.307747,67.1885935 140.528541,71.3962037 137.153565,71.3962037 C134.329126,71.3962037 133.481632,66.971514 133.170051,66.7750528 C132.255116,66.1981591 133.587803,71.3962037 125.799196,71.3962037 C118.010589,71.3962037 119.156937,66.0500121 118.452728,66.7750528 C117.90935,67.3345041 116.294007,71.7498794 114.083287,71.3962037 C109.234092,70.6204191 110.673152,64.9284698 106.226585,63.2115135 Z" id="Path-24" fill="#292929"></path>
                <g id="Group" transform="translate(107.452728, 50.520450)">
                    <path d="M4.66492559,5.69679013 C6.01339185,5.86894593 8.74628602,5.76451619 8.74628602,4.38380432 C8.74628602,3.00309244 7.0707759,1.04151081 5.38847291,0.724719637 C3.70616992,0.407928466 1.78136434,0.865867342 1.78136434,2.24657922 C1.78136434,3.62729109 3.31645932,5.52463432 4.66492559,5.69679013 Z" id="Oval" fill="#D8D8D8"></path>
                    <path d="M31.5694197,6.6046281 C32.917886,6.77678391 35.6507801,6.67235417 35.6507801,5.29164229 C35.6507801,3.91093042 33.97527,1.94934878 32.292967,1.63255761 C30.610664,1.31576644 28.6858585,1.77370532 28.6858585,3.15441719 C28.6858585,4.53512907 30.2209534,6.4324723 31.5694197,6.6046281 Z" id="Oval" fill="#D8D8D8" transform="translate(32.168319, 4.102043) scale(-1, 1) translate(-32.168319, -4.102043) "></path>
                    <path d="M0,0.936831344 C1.75083958,0.0915023715 3.39742626,-0.181753722 4.93976006,0.117063063 C7.25326077,0.56528824 8.12633214,1.14451277 8.98457882,2.67753297 C9.55674327,3.69954643 9.98068519,5.3113072 10.2564046,7.51281526 C9.40852074,6.69703922 8.61236613,6.2891512 7.86794077,6.2891512 C6.75130272,6.2891512 4.76139903,6.84161075 2.60149654,5.37229504 C1.16156155,4.39275123 0.294396036,2.91426333 0,0.936831344 Z" id="Path-16" stroke="#292929"></path>
                </g>
                <g id="Group" transform="translate(138.952728, 55.520450) scale(-1, 1) translate(-138.952728, -55.520450) translate(133.452728, 51.520450)" stroke="#292929">
                    <path d="M-3.55271368e-15,0.936831344 C1.75083958,0.0915023715 3.39742626,-0.181753722 4.93976006,0.117063063 C7.25326077,0.56528824 8.12633214,1.14451277 8.98457882,2.67753297 C9.55674327,3.69954643 9.98068519,5.3113072 10.2564046,7.51281526 C9.40852074,6.69703922 8.61236613,6.2891512 7.86794077,6.2891512 C6.75130272,6.2891512 4.76139903,6.84161075 2.60149654,5.37229504 C1.16156155,4.39275123 0.294396036,2.91426333 -3.55271368e-15,0.936831344 Z" id="Path-16"></path>
                </g>
                <path d="M45.7187209,213.972172 C44.116869,218.256892 42.1777622,220.399252 39.9014005,220.399252 C36.486858,220.399252 36.486858,215.253119 18.0717881,220.399252 C-0.343281763,225.545384 -1.97982071,253.241861 1.43014489,262.505836 C4.84011048,271.76981 25.3287396,278.899574 39.9014005,276.021977 C54.4740614,273.144381 61.5309886,278.084047 70.7108415,278.084047 C79.8906944,278.084047 80.3048472,274.768688 87.4279519,273.803906 C94.5510565,272.839124 104.07697,271.555051 104.07697,270.241054 C104.07697,268.927057 95.3971262,246.886434 79.4711625,244.711811 C63.5451988,242.537188 68.6450513,232.627294 58.8465741,227.439933 C49.048097,222.252572 47.6295604,223.658901 45.7187209,221.085939 C44.4448279,219.37063 44.4448279,216.999375 45.7187209,213.972172 Z" id="Path-4" stroke="#292929" fill="#000012"></path>
                <path d="M48.7833158,257.597888 C48.6912364,256.772681 54.6527341,256.031936 66.6678089,255.375653 C56.4789318,251.65205 51.3844933,249.434996 51.3844933,248.724492 C51.3844933,248.304654 57.1916948,248.304654 68.8060978,248.724492 C61.764211,244.542281 58.2432677,242.197245 58.2432677,241.689384 C58.2432677,241.181523 64.8525242,242.282398 78.0710374,244.992008 C79.1190281,245.141752 80.3027847,245.352792 81.6223072,245.625128 C83.6015909,246.033633 86.4389787,247.575258 87.2276165,248.094735 C89.8973942,249.853324 90.6379006,250.569592 91.551813,251.383116 C94.1862217,253.728147 96.5263139,256.952439 98.2382076,259.206878 C99.9501012,261.461318 103.444334,269.328932 103.593625,270.094586 C103.742915,270.860239 98.2948883,271.764149 95.1649175,272.333514 C92.0349468,272.902879 89.7779059,272.870237 84.8764027,273.937584 C82.0763618,274.547318 80.9578582,275.27161 79.7531968,275.79671 C78.5485355,276.321811 77.8889602,276.521802 77.0387639,276.83173 C75.1486078,277.52076 70.1794383,277.872233 66.6678089,277.273597 C57.1454201,275.650293 58.5292759,275.563763 55.7488864,275.203225 C54.0706229,274.985602 57.4842225,273.479349 65.989685,270.684465 C54.5187722,267.930231 48.7833158,266.224045 48.7833158,265.565909 C48.7833158,264.907773 54.5187722,263.887748 65.989685,262.505836 C54.6108515,260.059078 48.8753951,258.423096 48.7833158,257.597888 Z" id="Rectangle" fill="#292929"></path>
                <path d="M97.0622889,59.7349452 C99.3172965,59.9283705 100.863763,59.6933816 101.701687,59.0299784 C103.888431,57.2986857 105.429797,53.334539 106.210859,52.4128177 C106.731567,51.7983368 107.427535,51.357016 108.298765,51.0888552" id="Path-20" stroke="#292929"></path>
                <path d="M143.921543,60.9439557 C146.176551,61.137381 147.723017,60.9023921 148.560942,60.2389889 C150.747686,58.5076962 152.289051,54.5435495 153.070113,53.6218282 C153.590821,53.0073473 154.28679,52.5660265 155.158019,52.2978657" id="Path-20" stroke="#292929" transform="translate(149.539781, 56.653659) scale(-1, 1) translate(-149.539781, -56.653659) "></path>
                <path d="M101.131203,53.7095773 C103.095458,50.4044307 104.866198,48.456474 106.443422,47.8657071 C108.809259,46.9795568 112.299196,47.3929777 115.299196,49.8012775 C117.299196,51.4068107 118.059774,54.0101322 117.58093,57.6112419" id="Path-22" stroke="#292929" stroke-width="2"></path>
                <path d="M134.790769,58.5204503 C134.807751,52.6581469 135.918973,49.3645045 138.124434,48.6395229 C141.432626,47.5520507 145.357862,48.4744504 147.294503,49.9987136 C148.585597,51.0148891 149.752349,52.5561491 150.794759,54.6224935" id="Path-23" stroke="#292929" stroke-width="2"></path>
                <path d="M125.799196,79.2095773 C128.284477,79.2095773 130.299196,77.4187163 130.299196,75.2095773 C130.299196,74.4533361 130.067132,73.1704956 129.398763,72.6070834 C128.870743,72.16198 127.360701,71.3962037 125.799196,71.3962037 C124.237691,71.3962037 122.741575,72.1811007 122.150246,72.6070834 C121.460429,73.1040158 121.299196,74.348444 121.299196,75.2095773 C121.299196,77.4187163 123.313915,79.2095773 125.799196,79.2095773 Z" id="Oval" fill="#000012"></path>
                <g id="MOUTH" transform="translate(113.709132, 68.810203)">
                    <path d="M3.87179771,0 C1.31572661,5.11434173 0.31572661,8.4141331 0.871797709,9.89937413 C1.70590436,12.1272357 4.25640458,16.717568 12,16.717568 C19.7435954,16.717568 22.7253757,12.1272357 23.6153931,10.3993741 C24.2087381,9.24746644 23.166004,5.90450068 20.4871908,0.370476856" id="Path-25" stroke="#000014"></path>
                    <line x1="12.0900639" y1="9.89937413" x2="12.0900639" y2="14.1756444" id="Path-18" stroke="#000013"></line>
                </g>
                <path d="M101.211515,6.41636579 C108.218396,12.1219751 112.132134,15.6051617 112.952728,16.8659255 C114.183618,18.7570712 113.133297,19.5918903 114.361605,21.8897344 C115.180478,23.4216305 116.727903,25.3868794 119.00388,27.7854811" id="Path-26" stroke="#292929"></path>
                <path d="M138.606259,30.2832257 C139.943637,27.0706447 142.22543,23.7374083 145.451638,20.2835167 C148.677846,16.8296251 152.012241,14.1503207 155.454825,12.2456035" id="Path-27" stroke="#292929"></path>
                <path d="M120.672037,27.7854811 C121.634637,26.5800155 122.244987,25.5645898 122.503087,24.739204 C122.761188,23.9138181 122.884613,22.5826893 122.873362,20.7458174" id="Path-28" stroke="#292929"></path>
                <path d="M137.537786,21.2644146 C137.403561,23.7646647 137.403561,25.4797177 137.537786,26.4095738 C137.672011,27.3394298 138.028169,28.3626201 138.606259,29.4791445" id="Path-29" stroke="#292929"></path>
                <line x1="116.753813" y1="68.5506696" x2="122.079188" y2="73.0634686" id="Path-30" stroke="#000014"></line>
                <line x1="128.753813" y1="69.2818493" x2="134.533808" y2="74.0634686" id="Path-30" stroke="#000014" transform="translate(131.643810, 71.672659) scale(-1, 1) translate(-131.643810, -71.672659) "></line>
                <path d="M47.4215313,203.067525 C55.3689313,199.182732 59.9864526,197.240335 61.2740953,197.240335 C63.2055592,197.240335 69.4399487,195.000488 76.651131,205.571111 C83.8623132,216.141734 84.1834567,227.256226 84.5342725,231.336625 C84.7681497,234.056891 83.2612423,238.470279 80.0135505,244.576788" id="Path-31" stroke="#292929"></path>
                <path d="M55.598478,186.37782 C59.5179434,186.317636 63.0914868,187.193256 66.319108,189.004679 C69.5467292,190.816102 74.1115434,198.274932 80.0135505,211.381171" id="Path-33" stroke="#292929"></path>
                <path d="M112.533288,30.2832257 C111.241103,28.1129053 110.21956,26.1070465 109.468659,24.2656492 C108.342308,21.5035533 111.928455,20.4719236 107.407565,17.1009234 C102.886675,13.7299232 94.0048634,1.97194682 93.563595,1.26227793 C93.269416,0.789165339 92.6416375,0.368406028 91.6802595,1.77635684e-15" id="Path-34" stroke="#292929"></path>
                <path d="M146.314475,35.5026858 C146.199904,31.8327231 146.872038,28.4557544 148.330878,25.3717796 C149.789717,22.2878048 157.403902,16.2749573 171.173431,7.33323711" id="Path-35" stroke="#292929"></path>
                <path d="M88.3612938,36.7987425 C91.719885,39.1772868 93.8693466,40.5487387 94.8096786,40.9130981 C95.7500105,41.2774575 97.124142,41.2774575 98.9320729,40.9130981" id="Path-36" stroke="#292929"></path>
                <path d="M169.483804,41.476701 C165.487117,43.6118978 162.839109,44.6794962 161.539779,44.6794962 C159.590785,44.6794962 155.379882,43.5536141 154.314924,43.0780986" id="Path-37" stroke="#292929"></path>
                <path d="M118.452728,68.3987506 C118.434704,65.0282829 118.383527,62.5422689 118.299196,60.9407086 C118.214865,59.3391483 118.018177,57.1178647 117.709132,54.2768579" id="Path-39" stroke="#292929"></path>
                <path d="M135.017405,68.4287272 C134.532372,63.5652139 134.169757,60.4333934 133.929562,59.0332656 C133.655868,57.43787 133.382174,55.7424462 133.10848,53.946994" id="Path-39" stroke="#292929" transform="translate(134.062943, 61.187861) scale(-1, 1) translate(-134.062943, -61.187861) "></path>
                <path d="M120.759217,81.7580068 C121.23849,81.789612 125.617726,82.1105289 130.299196,81.7580068 C133.420176,81.5229921 135.384838,80.9993379 136.193181,80.1870443 C135.209954,81.5877493 134.269101,82.4364052 133.370623,82.7330122 C132.022904,83.1779226 131.190619,83.821228 125.958392,83.821228 C120.726166,83.821228 120.649632,83.4261973 118.106032,82.6107352 C117.507722,82.4189208 116.70369,81.573183 115.693936,80.0735217 C117.430776,81.0883629 119.119203,81.6498579 120.759217,81.7580068 Z" id="Rectangle" fill="#000014"></path>
                <path d="M110.205257,74.6519509 C112.208818,75.0074927 114.945001,75.9976093 118.413806,77.6223008 C113.988749,76.3808448 111.234839,75.664046 110.152077,75.4719045 C109.702421,75.3921108 107.213929,74.8921294 106.22879,75.7878419 C105.57203,76.3849836 105.027944,77.5203054 104.596531,79.1938075 C104.579361,77.1368114 104.867292,75.8681991 105.460325,75.3879706 C106.349874,74.6676278 107.199916,74.1186383 110.205257,74.6519509 Z" id="Rectangle" fill="#000014" transform="translate(111.504806, 76.816167) rotate(39.000000) translate(-111.504806, -76.816167) "></path>
                <path d="M139.205257,74.6519509 C141.208818,75.0074927 143.945001,75.9976093 147.413806,77.6223008 C142.988749,76.3808448 140.234839,75.664046 139.152077,75.4719045 C138.702421,75.3921108 136.228659,74.9590621 135.243519,75.8547747 C134.586759,76.4519163 134.037763,77.5649273 133.596531,79.1938075 C133.579361,77.1368114 133.867292,75.8681991 134.460325,75.3879706 C135.349874,74.6676278 136.199916,74.1186383 139.205257,74.6519509 Z" id="Rectangle" fill="#000014" transform="translate(140.504806, 76.816167) scale(-1, 1) rotate(39.000000) translate(-140.504806, -76.816167) "></path>
                <path d="M106.192376,77.3102032 C114.726451,85.8409981 121.232037,90.1063956 125.709132,90.1063956 C130.186228,90.1063956 136.279374,85.8409981 143.988571,77.3102032 C136.964675,83.4540678 130.90155,86.5260001 125.799196,86.5260001 C120.696842,86.5260001 114.161235,83.4540678 106.192376,77.3102032 Z" id="Path-40" fill="#000014"></path>
                <path d="M91.646559,2.10958011 C91.3237806,2.10958011 88.1765501,6.98907527 87.9451828,13.3959967 C87.8319865,16.5305804 89.5305279,19.5960734 89.9322064,24.6475883 C90.3515373,29.9210996 89.3400019,34.1159052 89.9322064,35.1109222 C90.7138824,36.4242877 94.3588138,38.992555 97.1056746,38.992555 C98.8445749,38.992555 100.419538,36.15241 102.703034,34.546154 C107.13247,31.4304017 108.780948,30.2957473 109.425441,29.5647596 C110.069934,28.8337719 106.333771,24.8063487 107.281357,22.0517577 C107.378983,21.7679635 108.179414,20.4599923 107.604015,19.9801136 C105.116635,17.905655 100.536142,13.4584223 99.4720831,12.0691942 C95.8562372,7.34836854 91.9693375,2.10958011 91.646559,2.10958011 Z" id="Path-41" stroke="#292929" fill="#292929"></path>
                <path d="M149.450443,9.77180458 C149.100027,9.77180458 148.093667,18.2633223 148.485513,22.2495669 C148.87736,26.2358116 152.216639,39.1594947 152.610903,39.8874504 C153.005167,40.6154061 156.532667,42.5686181 158.374095,42.5686181 C160.527468,42.5686181 164.275298,41.9792684 165.113788,41.0540617 C169.035393,36.7268855 171.512239,35.1268246 171.801224,34.3863939 C172.090208,33.6459632 171.555418,29.3503897 170.161989,26.5448154 C169.194076,24.5959885 162.475142,19.2112647 160.847784,17.8792314 C158.470424,15.9333021 149.800859,9.77180458 149.450443,9.77180458 Z" id="Path-41" stroke="#292929" fill="#292929" transform="translate(160.136729, 26.170211) scale(-1, 1) translate(-160.136729, -26.170211) "></path>
                <path d="M91.6802595,7.06673727 C91.5105772,7.06673727 92.0182672,8.12624028 92.3860896,10.3123542 C92.5103641,11.0509671 91.64682,11.663091 91.9166862,13.2502633 C92.0019166,13.7515314 93.0862115,14.1476865 93.2910699,15.0196177 C93.4420149,15.6620789 92.7886935,16.1010755 93.0211255,17.5358654 C93.074804,17.86722 94.4623944,18.1419434 94.5924687,18.7034909 C94.689763,19.1235227 93.9324403,19.6302531 93.9737628,20.5679273 C93.9886633,20.9060449 95.4251084,21.4199406 95.5681748,22.1066997 C95.7119324,22.7967769 94.5924687,23.6599009 94.8360971,24.0743218 C95.0797255,24.4887427 96.3907726,25.1488862 96.7215305,25.9194996 C96.9036162,26.3437304 95.681766,27.1437825 95.842718,27.5328338 C96.2431178,28.5006754 97.2016,28.9763715 97.5832772,29.737212 C97.7321979,30.0340723 97.1774771,30.6118586 97.3889432,31.0944872 C97.6004093,31.5771159 99.722338,34.3487594 99.952349,33.9911486 C100.10489,33.7539839 99.1611049,32.4964854 98.6759815,31.0944872 C98.476665,30.5184661 98.9586648,30.041785 98.6759815,29.406818 C98.3888427,28.7618432 97.8375837,28.5913413 97.5832772,27.7854811 C97.3906457,27.1750597 98.4564441,26.6349357 98.2203474,25.9194996 C98.0355758,25.3595925 96.8998284,24.7082267 96.7215305,24.0743218 C96.6112459,23.6822256 96.8984948,22.9238333 97.5832772,21.7991451 C96.6809547,20.998999 96.1916362,20.4368813 96.115322,20.1127921 C95.888064,19.1476799 96.596152,18.7847143 96.4119276,18.3776421 C95.9533558,17.3643575 95.0358565,17.0013501 94.8360971,16.4312573 C94.695477,16.029942 95.3069599,15.0687641 95.178848,14.6939993 C94.7745884,13.5114216 93.6376078,12.7240239 93.2910699,11.8434371 C93.0853126,11.3205874 93.7427193,10.4706962 93.5925079,10.0363999 C92.8076919,7.76731378 91.8740319,7.06673727 91.6802595,7.06673727 Z" id="Path-42" fill="#000012"></path>
                <path d="M158.68026,13.0667373 C158.510577,13.0667373 159.018267,14.1262403 159.38609,16.3123542 C159.510364,17.0509671 158.64682,17.663091 158.916686,19.2502633 C159.001917,19.7515314 160.086211,20.1476865 160.29107,21.0196177 C160.442015,21.6620789 159.788693,22.1010755 160.021126,23.5358654 C160.074804,23.86722 161.462394,24.1419434 161.592469,24.7034909 C161.689763,25.1235227 160.93244,25.6302531 160.973763,26.5679273 C160.988663,26.9060449 162.425108,27.4199406 162.568175,28.1066997 C162.711932,28.7967769 161.592469,29.6599009 161.836097,30.0743218 C162.079725,30.4887427 163.390773,31.1488862 163.721531,31.9194996 C163.903616,32.3437304 162.681766,33.1437825 162.842718,33.5328338 C163.243118,34.5006754 164.2016,34.9763715 164.583277,35.737212 C164.732198,36.0340723 164.177477,36.6118586 164.388943,37.0944872 C164.600409,37.5771159 166.722338,40.3487594 166.952349,39.9911486 C167.10489,39.7539839 166.161105,38.4964854 165.675981,37.0944872 C165.476665,36.5184661 165.958665,36.041785 165.675981,35.406818 C165.388843,34.7618432 164.837584,34.5913413 164.583277,33.7854811 C164.390646,33.1750597 165.456444,32.6349357 165.220347,31.9194996 C165.035576,31.3595925 163.899828,30.7082267 163.721531,30.0743218 C163.611246,29.6822256 163.898495,28.9238333 164.583277,27.7991451 C163.680955,26.998999 163.191636,26.4368813 163.115322,26.1127921 C162.888064,25.1476799 163.596152,24.7847143 163.411928,24.3776421 C162.953356,23.3643575 162.035857,23.0013501 161.836097,22.4312573 C161.695477,22.029942 162.30696,21.0687641 162.178848,20.6939993 C161.774588,19.5114216 160.637608,18.7240239 160.29107,17.8434371 C160.085313,17.3205874 160.742719,16.4706962 160.592508,16.0363999 C159.807692,13.7673138 158.874032,13.0667373 158.68026,13.0667373 Z" id="Path-42" fill="#000012" transform="translate(162.807696, 26.544815) scale(-1, 1) rotate(-12.000000) translate(-162.807696, -26.544815) "></path>
            </g>
        </g>
    </g>
</svg>