<?xml version="1.0" encoding="UTF-8"?>
<svg width="80px" height="55px" viewBox="0 0 80 55" version="1.1" xmlns="http://www.w3.org/2000/svg" xmlns:xlink="http://www.w3.org/1999/xlink">
    <!-- Generator: Sketch 61.2 (89653) - https://sketch.com -->
    <title>Group</title>
    <desc>Created with Sketch.</desc>
    <g id="Final-Export" stroke="none" stroke-width="1" fill="none" fill-rule="evenodd">
        <g id="Down-Wings-facing-left" transform="translate(0.000000, -3.000000)">
            <g id="Group" transform="translate(39.765623, 30.354250) scale(-1, 1) translate(-39.765623, -30.354250) translate(-2.734377, 2.854250)">
                <g id="Tail" transform="translate(0.000000, 11.074600)">
                    <path d="M4.24162482,8.34525696 C4.22503844,9.21813093 4.53218071,9.79415748 5.16305162,10.0733366 C6.10935798,10.4921053 6.88438872,9.94618485 7.2240547,10.0733366 C7.54425234,10.1932005 7.0514915,10.6238172 7.83595504,11.1555766 C8.10391172,11.3372147 8.85813129,11.4703792 10.0986138,11.5550701 L14.2416248,8.48323926 L11.3910417,7.55507011 L4.24162482,8.34525696 Z" id="Tail-Shadow" fill="#524749"></path>
                    <path d="M2.73437737,6.55613844 C8.09621925,3.03900381 13.5924779,1.3406912 15.9000322,0.571710059 C17.4384018,0.0590559672 19.5396375,-0.1088243 22.2037394,0.0680692562 L11.507297,9.7432515 C9.71644477,10.147546 8.82101865,10.147546 8.82101865,9.7432515 C8.82101865,9.33895698 9.6078993,8.71898045 11.1816606,7.88332191 C6.50510057,8.66483532 3.68933949,8.98057324 2.73437737,8.83053566 C1.30193419,8.60547928 -2.62746451,10.0732731 2.73437737,6.55613844 Z" fill="#D0C1A8"></path>
                </g>
                <path d="M57.7557958,14.3135194 C64.9145761,22.1373143 69.6779907,27.3930175 72.0460395,30.080629 C76.0347886,34.6076506 78.4960555,37.5908671 79.4298403,39.0302786 C82.0778528,43.1121395 80.7901693,47.5290824 80.2045645,48.9178693 C79.8141613,49.8437272 79.0415727,49.3807983 77.8867985,47.5290824 C78.3774253,50.4804171 78.0540206,51.9560844 76.9165844,51.9560844 C75.7791482,51.9560844 74.7242797,50.943346 73.7519789,48.9178693 C73.7133869,50.5197799 72.8614912,51.0510159 71.1962918,50.5115775 C69.4450298,49.9442591 68.2600957,48.9500941 67.6414897,47.5290824 C66.9705195,48.4549403 65.9562226,48.6517666 64.5985989,48.1195612 C63.4688678,47.6766925 62.7165189,46.4565929 62.3415523,44.4592622 C61.6075207,45.5858673 60.6333384,45.8909113 59.4190052,45.3743943 C57.5975054,44.5996187 55.2037538,42.5840283 54.553169,41.1441305 C54.1194458,40.1841986 54.3644454,38.9749589 55.2881678,37.5164114 C54.4333554,39.0445892 53.5899781,39.7767335 52.7580359,39.7128441 C51.5101225,39.6170101 50.7307996,38.3312389 50.2791154,37.5164114 C49.9779927,36.9731931 49.9779927,36.2146995 50.2791154,35.2409307 L48.1032836,36.5109463 C47.2575379,36.7385121 46.6380542,36.3151736 46.2448325,35.2409307 C45.8516109,34.1666879 45.8516109,32.8976581 46.2448325,31.4338412 C45.6565981,33.2589443 45.0701338,34.1714959 44.4854397,34.1714959 C43.6083985,34.1714959 42.8913805,32.6490273 42.7343774,31.4338412 C42.6297086,30.623717 42.9860385,29.7765472 43.8033669,28.8923316 C42.6797189,30.5866713 41.8300849,31.4338412 41.254465,31.4338412 C40.6788451,31.4338412 40.3788776,30.9285291 40.3545627,29.9179049 L39.2176105,21.1210728 L46.7620017,14.9885059 L51.3693366,19.8735951 L52.7580359,13.3709693 L53.130931,13.022942 L57.7557958,14.3135194 Z" id="Right-Wing" stroke="#D0C1A7" fill="#D0C1A7"></path>
                <path d="M57.8307512,17.5768381 L62.3419913,20.7180971 C66.9037424,23.9895249 69.1846179,26.1320759 69.1846179,27.1457502 C69.1846179,28.1594244 65.2862346,26.9850705 57.4894679,23.6226887 L55.1309387,20.3612941 L57.8307512,17.5768381 Z" id="Rectangle" fill="#AD8C6A"></path>
                <path d="M53.906533,26.2127119 C55.4334674,26.4928211 57.3113994,26.5699721 59.5403288,26.444165 C62.883723,26.2554544 65.7148341,23.0816048 67.3332809,22.8319896 C68.4122453,22.6655795 70.3051252,22.9822307 73.0119203,23.7819431 C70.8387748,23.7511587 69.2532419,23.9765357 68.2553217,24.4580739 C66.7584412,25.1803813 65.3151295,26.1107772 62.4044208,27.0039416 C60.4639482,27.5993846 57.5003399,27.5910705 53.5135958,26.9789994 L53.906533,26.2127119 Z" id="Path-6" fill="#896F55" transform="translate(63.262758, 25.116684) rotate(37.000000) translate(-63.262758, -25.116684) "></path>
                <path d="M57.8307512,16.7940331 L58.8110785,14.7558641 C58.7955959,14.7913232 60.4638008,16.5892135 63.8156931,20.1495351 C67.1675855,23.7098567 70.817356,27.8231828 74.7650046,32.4895132 C69.6377549,27.332855 65.8725813,23.6408728 63.4694839,21.4135666 C61.0663865,19.1862604 59.1868089,17.6464159 57.8307512,16.7940331 Z" id="Path-7" fill="#D0C1A8"></path>
                <path d="M32.3503772,4.76548658 C36.1038686,3.00591278 39.0745263,1.92842839 41.2623502,1.53303343 C44.5440861,0.939940977 48.4805127,1.45954324 51.1538836,2.26374755 C53.8272545,3.06795186 57.2857606,6.02279692 57.4625637,6.14145993 C57.5804324,6.22056861 57.5804324,6.33937385 57.4625637,6.49787564 L57.4625637,14.3135194 L55.243856,18.8623139 L51.1538836,20.8178519 L44.5440861,19.8464896 L39.2176105,21.1210728 L31.3557144,18.1668893 L30.13913,12.9881291 L32.3503772,4.76548658 Z" id="Body" stroke="#AD8C6A" fill="#AC8C6C"></path>
                <path d="M48.5655808,9.02702795 C45.7330381,13.3168847 48.2549534,19.168123 51.16629,20.8178519 C54.0776266,22.4675808 58.2610573,16.7331666 58.592283,14.1733523 C58.9235088,11.6135379 57.9615701,7.51009875 56.8700871,6.54133292 C55.7786042,5.57256708 51.3981235,4.7371712 48.5655808,9.02702795 Z" id="Face" stroke="#D0C1A7" stroke-width="0.5" fill="#D0C1A8"></path>
                <path d="M46.1276388,9.5995206 C44.3072458,14.8895621 47.7945416,18.6769171 50.8059918,20.7368029 C53.817442,22.7966887 58.2212648,16.2414921 58.600312,13.6816778 C58.9793592,11.1218634 59.1609146,8.16045 57.4625637,6.14145993 C55.7642128,4.12246987 47.9480317,4.30947907 46.1276388,9.5995206 Z" id="Face-Outline" stroke="#D0C1A8"></path>
                <path d="M22.9562864,10.2905716 C26.2945935,6.60718157 28.9412394,4.76548658 30.8962244,4.76548658 C33.8287017,4.76548658 39.3581502,7.86487641 40.3545627,9.07772398 C41.0188377,9.88628903 39.73683,10.5746043 36.5085397,11.1426697 C38.6338593,20.5943362 39.9158669,27.0170237 40.3545627,30.410732 C41.0126063,35.5012946 40.796696,39.3161629 40.3545627,40.8951364 C40.0598071,41.9477855 38.1085402,42.4884168 34.500762,42.5170305 C35.8392805,42.5170305 36.5085397,42.8999572 36.5085397,43.6658106 C36.5085397,44.8145906 30.0757825,52.7326288 29.1006776,53.6457502 C28.1255727,54.5588715 26.7589406,54.5588715 26.0882453,53.6457502 C25.6411151,53.0370026 25.8646802,52.1518217 26.7589406,50.9902074 C24.7255358,51.2025928 23.4579845,50.8490177 22.9562864,49.929482 C22.4545884,49.0099464 22.4545884,48.0554118 22.9562864,47.0658783 C21.2419611,47.1660611 20.1211046,46.771427 19.5937171,45.8819761 C19.0663296,44.9925253 19.137125,43.8708767 19.8061033,42.5170305 C18.5504449,42.5170305 17.6003858,42.1507578 16.9559259,41.4182123 C16.311466,40.6856669 16.2026491,39.6210503 16.629475,38.2243624 C15.4495341,38.3827355 14.5945053,38.0725313 14.0643886,37.29375 C13.5342719,36.5149687 13.4012669,35.515625 13.6653736,34.295719 C12.5956324,34.0525611 11.9799723,33.5896983 11.8183933,32.9071304 C11.6568142,32.2245625 11.6568142,31.7228 11.8183933,31.4018428 C11.2785254,31.4588091 10.7175239,31.1284388 10.1353886,30.410732 C9.55325333,29.6930252 9.42240424,28.7892319 9.74284134,27.6993521 C8.44824319,27.1737618 8.04051414,26.3781151 8.51965418,25.3124121 C8.99879423,24.2467091 10.0983739,22.849596 11.8183933,21.1210728 L22.9562864,10.2905716 Z" id="Left-Wing" stroke="#AD8C6A" fill="#AD8C6A"></path>
                <path d="M33.7243903,3.58724406 C38.6961812,1.32676037 41.775088,1.56123275 42.9611108,4.2906612 C44.1471335,7.02008965 45.4449239,8.12958755 46.8544819,7.61915492 C45.008724,12.4604602 43.9488288,13.1443986 43.6747965,9.67097008 C43.4007641,6.19754157 40.083962,4.1696329 33.7243903,3.58724406 Z" id="Rectangle" fill="#D0C1A8"></path>
                <path d="M38.7167217,10.2059152 C40.72472,9.82640908 42.1823683,9.64882773 43.0896667,9.67317115 C43.9969652,9.69751457 44.8421234,9.93688176 45.6251415,10.3912727 C45.3368809,12.501965 45.3732929,14.1068458 45.7343774,15.2059152 C46.0954618,16.3049846 47.1411812,17.8782704 48.8715355,19.9257725 L40.1571329,20.2059152 C39.2741893,17.8571752 38.7478515,16.0936266 38.5781196,14.9152694 C38.4083877,13.7369122 38.4545884,12.1671274 38.7167217,10.2059152 Z" id="Body-Highlight" fill="#D0C1A8"></path>
                <path d="M46.6392207,16.3670161 C47.6991311,18.022938 48.8696022,19.1234948 50.1506339,19.6686864 C51.4316657,20.2138779 52.3790658,20.7013814 52.9928344,21.1311967 C51.3127897,20.5778963 50.4655173,20.3496482 50.4510172,20.4464523 C50.3554087,21.0847451 48.8715355,19.9257725 48.2337376,19.2881025 C47.808539,18.8629892 47.2770333,17.8892937 46.6392207,16.3670161 Z" id="Rectangle" fill="#896F55"></path>
                <path d="M45.7769163,13.0354388 C46.6459632,14.9481825 47.481527,16.1783238 48.2836075,16.7258629 C49.085688,17.273402 49.5013848,17.62223 49.5306979,17.7723467 C49.6644937,17.8936105 49.7241416,18.0026445 49.7096415,18.0994486 C49.614033,18.7377414 48.5990898,17.6042841 47.6409673,16.7470849 C47.0022189,16.1756188 46.3808686,14.9384034 45.7769163,13.0354388 Z" id="Rectangle" fill="#AC8C6C" transform="translate(47.744342, 15.660855) scale(-1, 1) rotate(-121.000000) translate(-47.744342, -15.660855) "></path>
                <path d="M38.7167217,20.4237285 C39.742342,19.9332461 41.8757854,19.6213014 45.1170518,19.4878945 C47.6293549,19.384491 51.461216,20.1681857 52.8690515,21.0421551 C53.1413808,21.2112142 53.3746349,21.4687476 53.5688138,21.8147551 C50.0602165,21.0829664 47.4123257,20.717072 45.6251415,20.717072 C42.8702765,20.717072 40.7344329,21.1322677 39.2176105,21.9626592 L38.7167217,20.4237285 Z" id="Body-Shadow" fill="#5E514B"></path>
                <path d="M37.7689152,11.4507727 C37.0478308,11.402484 36.9088291,11.6700762 37.3519102,12.2535492 C38.0165317,13.1287587 36.7434746,13.1849009 37.7689152,14.5010315 C38.0286987,14.8344579 38.6774073,22.6109109 39.1373339,22.5408212 C39.261931,22.5218334 39.6274141,21.8555093 39.6274141,20.6296705 C39.6274141,18.3624032 39.0782795,13.5515201 38.945252,13.2607597 C38.5754394,12.4524535 42.7343774,11.9641454 42.0873763,10.6010463 C41.6560423,9.6923136 40.935417,9.45106978 39.9255003,9.87731483 L37.7689152,11.4507727 Z" id="Left-Wing-Shadow" fill="#896F55"></path>
                <path d="M22.9562864,10.7101575 C25.1347102,9.39468596 19.5937171,11.8474749 19.5937171,16.5076445 C19.5937171,20.746731 21.5907512,23.0273426 24.3523726,23.6226887 C27.1139939,24.2180347 30.0181585,25.3201695 30.676202,30.410732 C31.0542413,33.3352079 32.4933392,34.0597585 34.8956952,35.6238025 C36.2092535,36.4789893 37.9572442,37.29375 37.9572442,39.4857199 C37.9572442,40.9470331 36.966853,42.3684136 34.9860706,43.7498613 C36.00105,42.9279741 36.5085397,42.8999572 36.5085397,43.6658106 C36.5085397,44.8145906 30.0757825,52.7326288 29.1006776,53.6457502 C28.1255727,54.5588715 26.7589406,54.5588715 26.0882453,53.6457502 C25.6411151,53.0370026 25.8646802,52.1518217 26.7589406,50.9902074 C24.7255358,51.2025928 23.4579845,50.8490177 22.9562864,49.929482 C22.4545884,49.0099464 22.4545884,48.0554118 22.9562864,47.0658783 C21.2419611,47.1660611 20.1211046,46.771427 19.5937171,45.8819761 C19.0663296,44.9925253 19.137125,43.8708767 19.8061033,42.5170305 C18.5504449,42.5170305 17.6003858,42.1507578 16.9559259,41.4182123 C16.311466,40.6856669 16.2026491,39.6210503 16.629475,38.2243624 C15.4495341,38.3827355 14.5945053,38.0725313 14.0643886,37.29375 C13.5342719,36.5149687 13.4012669,35.515625 13.6653736,34.295719 C12.5956324,34.0525611 11.9799723,33.5896983 11.8183933,32.9071304 C11.6568142,32.2245625 11.6568142,31.7228 11.8183933,31.4018428 C11.2785254,31.4588091 10.7175239,31.1284388 10.1353886,30.410732 C9.55325333,29.6930252 9.42240424,28.7892319 9.74284134,27.6993521 C8.44824319,27.1737618 8.04051414,26.3781151 8.51965418,25.3124121 C8.99879423,24.2467091 10.0983739,22.849596 11.8183933,21.1210728 C17.7913729,15.0574436 21.5040039,11.5871385 22.9562864,10.7101575 Z" id="Left-Wing" stroke="#D0C1A8" fill="#D0C1A8"></path>
                <g id="Left-Wing-Slats" transform="translate(8.457587, 12.703779)" fill="#AC8C6C">
                    <path d="M1,7.76389077 C3.9363301,9.38352052 6.07036969,10.6442504 7.40211877,11.5460803 C8.73386785,12.4479102 10.5513287,13.8630458 12.8545013,15.7914871 C11.8589696,14.7913515 10.5325779,13.5569379 8.87532603,12.0882464 C7.21807421,10.6195549 4.59296553,9.17810302 1,7.76389077 Z" id="Path-15" transform="translate(6.927251, 11.777689) rotate(-64.000000) translate(-6.927251, -11.777689) "></path>
                    <path d="M3.71816787,9.79120182 C6.52323085,11.4337273 8.59163688,12.7059049 9.92338596,13.6077349 C11.255135,14.5095648 13.867207,16.8603307 17.7596017,20.6600325 C15.1748479,17.7886364 13.053845,15.6185925 11.3965932,14.149901 C9.73934139,12.6812095 7.17986628,11.2283098 3.71816787,9.79120182 Z" id="Path-15" transform="translate(10.738885, 15.225617) rotate(-64.000000) translate(-10.738885, -15.225617) "></path>
                    <path d="M5.37268957,12.1205209 C8.09952464,13.8871876 10.1288167,15.221436 11.4605658,16.1232659 C12.7923149,17.0250958 15.7779837,19.352533 20.4175723,23.1055774 C17.0856246,20.2808387 14.5910249,18.1341235 12.9337731,16.665432 C11.2765212,15.1967405 8.75616007,13.6817701 5.37268957,12.1205209 Z" id="Path-15" transform="translate(12.895131, 17.613049) rotate(-64.000000) translate(-12.895131, -17.613049) "></path>
                    <path d="M8.17954077,16.9984596 C11.0140469,18.7941762 13.0971746,20.1429495 14.4289236,21.0447794 C15.7606727,21.9466094 18.3191478,23.964521 22.104349,27.0985142 C19.6267888,24.8928266 17.5593827,23.0556371 15.9021309,21.5869456 C14.2448791,20.118254 11.6706824,18.5887587 8.17954077,16.9984596 Z" id="Path-15" transform="translate(15.141945, 22.048487) rotate(-64.000000) translate(-15.141945, -22.048487) "></path>
                    <path d="M14.9330423,24.4899861 C18.3499932,25.7288589 20.7243431,26.7992102 22.0560922,27.7010402 C23.3878413,28.6028701 25.722225,31.6658281 29.0592432,36.8899142 C26.5786554,32.4533163 24.5245378,29.4845119 22.8968904,27.9835012 C21.269243,26.4824904 18.614627,25.3179854 14.9330423,24.4899861 Z" id="Path-15" transform="translate(21.996143, 30.689950) scale(1, -1) rotate(19.000000) translate(-21.996143, -30.689950) "></path>
                    <path d="M11.7952381,23.1533722 C15.9791789,24.1923783 18.7370238,25.1627962 20.0687729,26.0646262 C21.400522,26.9664561 23.5176542,29.1993119 26.4201695,32.7631936 C24.6343888,29.9168238 22.9128725,27.7592931 21.2556207,26.2906016 C19.5983688,24.8219101 16.444908,23.776167 11.7952381,23.1533722 Z" id="Path-15" transform="translate(19.107704, 27.958283) scale(1, -1) rotate(19.000000) translate(-19.107704, -27.958283) "></path>
                    <path d="M9.56052155,21.2665102 C12.6373923,22.1959295 15.1941626,23.1275947 17.2308325,24.0615059 C19.2675024,24.9954171 21.5894702,26.5580301 24.1967358,28.7493451 C22.8068343,27.1329244 20.8460344,25.6117808 18.3143362,24.1859142 C15.782638,22.7600476 12.8646998,21.7869129 9.56052155,21.2665102 Z" id="Path-15" transform="translate(16.878629, 25.007928) scale(1, -1) rotate(13.000000) translate(-16.878629, -25.007928) "></path>
                    <path d="M3.15116208,2.7979329 C4.6221406,3.70601122 6.02350441,4.61096534 7.35525348,5.51279527 C8.68700256,6.4146252 10.0724708,7.44517768 11.5116582,8.60445271 C11.2425386,8.36522344 10.2793529,7.51126304 8.6221011,6.04257153 C6.96484927,4.57388001 5.14120293,3.4923338 3.15116208,2.7979329 Z" id="Path-15" transform="translate(7.331410, 5.701193) rotate(-64.000000) translate(-7.331410, -5.701193) "></path>
                </g>
                <g id="Right-Wing-Slats" transform="translate(35.468790, 19.751443)" fill="#AC8C6C">
                    <path d="M5.30307669,2.90040635 C8.37981625,4.51515614 10.5840606,5.77344601 11.9158096,6.67527594 C13.2475587,7.57710587 14.6074579,8.76392985 15.9955073,10.2357479 C15.6931419,9.60834416 14.7133332,8.56029654 13.0560814,7.09160502 C11.3988296,5.62291351 8.81449467,4.22584728 5.30307669,2.90040635 Z" id="Path-15" transform="translate(10.649292, 6.568077) scale(-1, 1) rotate(19.000000) translate(-10.649292, -6.568077) "></path>
                    <path d="M1.00057127,1.0654606 C4.04885127,2.64046966 6.23886582,3.87888915 7.5706149,4.78071908 C8.90236397,5.68254901 10.4076686,6.67245173 12.0865286,7.75042723 C11.7153095,7.60075739 10.701074,6.79157672 9.04382216,5.3228852 C7.38657033,3.85419369 4.7054867,2.43505215 1.00057127,1.0654606 Z" id="Path-15" transform="translate(6.543550, 4.407944) scale(-1, 1) rotate(1.000000) translate(-6.543550, -4.407944) "></path>
                    <path d="M8.22941007,3.71508586 C11.4806085,5.45248085 13.7720823,6.77209331 15.1038314,7.67392324 C16.4355804,8.57575317 18.0308822,10.2705171 19.8897365,12.7582151 C18.9263535,10.9327748 17.616036,9.28570891 15.9587842,7.81701739 C14.3015324,6.34832588 11.7250743,4.98101537 8.22941007,3.71508586 Z" id="Path-15" transform="translate(14.059573, 8.236650) scale(-1, 1) rotate(19.000000) translate(-14.059573, -8.236650) "></path>
                    <path d="M10.9947984,5.24028252 C15.639356,7.36705013 18.6275093,8.88134891 19.9592583,9.78317884 C21.2910074,10.6850088 22.4824734,12.0522526 23.5336564,13.8849105 C22.8824572,12.377558 21.7282317,10.889536 20.0709798,9.42084452 C18.413728,7.95215301 15.3883342,6.55863234 10.9947984,5.24028252 Z" id="Path-15" transform="translate(17.264227, 9.562596) scale(-1, 1) rotate(31.000000) translate(-17.264227, -9.562596) "></path>
                    <path d="M14.2151781,7.02036739 C17.6484994,9.6772849 20.2077192,11.6236203 21.8928374,12.8593737 C23.5779557,14.0951271 25.2048455,15.6772147 26.7735068,17.6056367 C25.7432849,16.1669542 24.4536921,14.6495079 22.9047283,13.0532978 C21.3557645,11.4570877 18.4592478,9.44611091 14.2151781,7.02036739 Z" id="Path-15" transform="translate(20.494342, 12.313002) scale(-1, 1) rotate(35.000000) translate(-20.494342, -12.313002) "></path>
                    <path d="M18.4631954,9.4915288 C21.9240125,11.3350642 24.5897038,12.9607136 26.4602692,14.3684769 C28.3308345,15.7762402 30.6846939,18.4430503 33.5218472,22.3689074 C31.9028938,19.4219672 29.9295351,16.8021779 27.6017708,14.5095394 C25.2740066,12.2169009 22.2278148,10.5442307 18.4631954,9.4915288 Z" id="Path-15" transform="translate(25.992521, 15.930218) scale(1, -1) rotate(53.000000) translate(-25.992521, -15.930218) "></path>
                    <path d="M22.8841781,11.3750783 C26.4161785,13.2282145 29.0247379,14.7726592 30.7098561,16.0084126 C32.3949743,17.244166 35.3430546,20.1298116 39.554097,24.6653495 C36.9976678,21.401844 34.6709579,18.7638369 32.5739673,16.7513283 C30.4769767,14.7388197 27.247047,12.9467364 22.8841781,11.3750783 Z" id="Path-15" transform="translate(31.219138, 18.020214) scale(1, -1) rotate(56.000000) translate(-31.219138, -18.020214) "></path>
                    <path d="M31.8388935,13.1380523 C35.397816,15.2498891 38.0198363,16.9236842 39.7049546,18.1594375 C41.3900728,19.3951909 44.0280785,22.1807401 47.6189718,26.5160853 C45.6826917,23.4527725 43.6660564,20.9148618 41.5690658,18.9023532 C39.4720752,16.8898446 36.2286845,14.968411 31.8388935,13.1380523 Z" id="Path-15" transform="translate(39.728933, 19.827069) scale(1, -1) rotate(69.000000) translate(-39.728933, -19.827069) "></path>
                    <path d="M32.7864468,12.4548346 C37.5366014,14.897131 40.7542378,16.7361558 42.439356,17.9719092 C44.1244742,19.2076626 46.3338708,20.9431566 49.0675458,23.1783914 C44.5255884,19.1073617 41.7637584,16.7589807 40.7820557,16.1332486 C39.8003531,15.5075165 37.1351501,14.2813785 32.7864468,12.4548346 Z" id="Path-15" transform="translate(40.926996, 17.816613) scale(1, -1) rotate(88.000000) translate(-40.926996, -17.816613) "></path>
                    <path d="M25.8422776,12.1979754 C30.3995668,13.9025143 33.5207705,15.3726604 35.2058887,16.6084138 C36.8910069,17.8441672 40.0910076,21.0474208 44.8058907,26.2181746 C41.5230161,21.9496085 38.8330834,18.8090711 36.7360929,16.7965625 C34.6391023,14.7840539 31.0078306,13.2511915 25.8422776,12.1979754 Z" id="Path-15" transform="translate(35.324084, 19.208075) scale(1, -1) rotate(69.000000) translate(-35.324084, -19.208075) "></path>
                </g>
                <path d="M52.7130531,12.2237062 C53.2709097,14.4355642 53.5894296,15.8690895 53.6686129,16.5242824 C53.7477962,17.1794752 53.9004933,18.2276098 54.1267043,19.6686864 C54.2416459,18.4616341 54.2247086,17.1210478 54.0758922,15.6469275 C53.9270758,14.1728071 53.4727961,13.0317334 52.7130531,12.2237062 Z" id="Path-11" fill="#AD8C6A"></path>
                <path d="M52.7130531,12.2237062 C53.2709097,14.4355642 53.5894296,15.8690895 53.6686129,16.5242824 C53.7477962,17.1794752 53.9004933,18.2276098 54.1267043,19.6686864 C54.2416459,18.4616341 54.2247086,17.1210478 54.0758922,15.6469275 C53.9270758,14.1728071 53.4727961,13.0317334 52.7130531,12.2237062 Z" id="Path-11" fill="#896F55"></path>
                <path d="M56.8890251,11.8246486 C56.9466977,11.5419496 56.0732798,13.3624591 56.3097687,16.2362758 C56.467428,18.1521535 57.0282451,19.955196 57.9922199,21.6454032 C57.248642,19.6636036 56.7926818,17.8223255 56.6243393,16.1215689 C56.3718255,13.5704339 56.8313525,12.1073477 56.8890251,11.8246486 Z" id="Path-11" fill="#896F55" transform="translate(57.130637, 16.720613) scale(-1, 1) rotate(-23.000000) translate(-57.130637, -16.720613) "></path>
                <path d="M49.9812479,11.199196 C49.9514288,10.9625718 50.2178903,11.6284871 50.438056,11.8766487 C50.6405009,12.1048362 51.8860057,11.4673242 52.6338859,12.1053838 C53.0327125,12.4456457 53.2710527,13.1657333 53.367555,13.7908524 C53.4399666,14.0700311 53.4887608,14.358403 53.513907,14.6556162 C53.5819145,15.4594271 53.5819145,15.7744067 53.513907,15.600555 C53.4291743,15.3831198 53.3480682,15.2161743 53.2705884,15.0997186 C53.21512,15.0163468 53.0232833,14.8405717 52.6950784,14.572393 C52.4378517,14.3792444 52.0741108,14.1533501 51.5247052,14.022942 C50.2214863,13.8849172 50.058047,11.8086213 49.9812479,11.199196 Z" id="Eye" fill="#5E514B"></path>
                <path d="M23.3310691,10.2878708 C22.303551,10.9919953 21.4984604,12.6107728 20.9157972,15.1442033 L22.1594582,15.1581948 C22.5062583,13.89437 22.7806053,13.0565827 22.9824992,12.644833 C23.5577087,11.4717304 24.6754839,10.9373933 24.7295746,10.8981906 C25.4897926,10.3472144 27.2043386,9.61430967 29.8732125,8.69947645 C26.5393017,9.05428158 24.3585873,9.58374637 23.3310691,10.2878708 Z" id="Path-12" fill="#CFBFB0" transform="translate(25.394505, 11.928836) rotate(29.000000) translate(-25.394505, -11.928836) "></path>
                <path d="M54.1203443,20.4144601 C54.7800866,20.5110968 55.2444984,21.2165331 55.4234149,21.0950486 C55.6023314,20.9735641 55.4302998,20.077428 54.9742238,19.5811965 C54.5181478,19.0849651 54.1951661,19.2714564 54.0603024,19.4321415 C53.9254386,19.5928266 53.4606019,20.3178235 54.1203443,20.4144601 Z" id="Beak" fill="#896F55" transform="translate(54.634132, 20.184597) rotate(56.000000) translate(-54.634132, -20.184597) "></path>
                <path d="M5.45970519,10.6089739 C5.66178908,10.9895115 6.28306138,11.952314 7.32352208,13.4973814 C8.36398277,15.0424488 8.97400834,15.8980048 9.15359878,16.0640493 C11.9648172,17.6210964 13.7280625,18.641803 14.4433347,19.1261689 C16.4409583,20.4789138 18.0664583,21.0647398 18.6462103,21.1472682 C19.2259623,21.2297966 21.3656227,21.2885078 15.5128201,16.3669719 C11.6109516,13.085948 8.25991332,11.1666154 5.45970519,10.6089739 Z" id="Path-15" fill="#896F55" transform="translate(12.483212, 15.888197) rotate(-64.000000) translate(-12.483212, -15.888197) "></path>
                <path d="M24.7547183,15.6911781 C24.283375,19.3740003 31.5740649,19.6306553 32.6469732,20.3572042 C34.6445968,21.7099491 35.6456491,27.6791646 36.225401,27.761693 C36.2870627,27.7704707 36.4756227,27.4077948 36.7910811,26.6736655 C37.5156519,24.5395228 36.3347049,21.146716 33.24824,16.495245 C27.7397251,8.19361265 25.2260616,12.0083559 24.7547183,15.6911781 Z" id="Path-15" fill="#896F55" transform="translate(30.865281, 19.646455) scale(-1, -1) rotate(-64.000000) translate(-30.865281, -19.646455) "></path>
                <path d="M34.5454609,5.79814426 C35.946997,6.33024779 36.9209535,6.72149137 37.4673302,6.971875 C38.8719082,7.61553965 39.8226501,8.21585324 40.3545627,8.51810284 C41.6179844,9.23601917 40.8997667,10.3256151 40.213258,10.6942044 C39.5267494,11.0627938 37.8008592,11.3316621 37.6705257,12.3370406 C37.5401921,13.342419 38.683913,17.3637867 39.359062,21.1111123 C39.8091613,23.6093294 40.3578711,26.8423244 41.0051913,30.8100975 L41.1820767,34.0534008 C40.0188485,32.3497855 39.1970635,30.8479982 38.7167217,29.5480389 C37.9962089,27.5980999 37.9962089,23.9366437 37.6705257,22.6296705 C37.1443386,20.5180717 35.3665315,20.5780099 34.5454609,18.472513 C33.7243903,16.3670161 35.1755425,15.6608552 34.5454609,13.6733886 C34.1254064,12.3484109 32.8356535,11.5236801 30.676202,11.199196 C34.2682754,10.6168005 36.2123879,9.9096431 36.5085397,9.07772398 C36.8046915,8.24580487 36.1503319,7.15261163 34.5454609,5.79814426 Z" id="leftWing-Highlight" fill="#D0C1A8"></path>
                <path d="M26.5326162,11.0802551 C24.3996758,11.516171 23.1574592,12.6403791 22.8059666,14.4528793 C23.691267,14.4265579 24.5265838,14.2094809 25.311917,13.8016482 C26.0972503,13.3938155 28.524813,11.5870274 32.5946052,8.38128375 C30.6862197,9.74468212 28.6655567,10.6443392 26.5326162,11.0802551 Z" id="Path-12" fill="#5E514B" transform="translate(27.700286, 11.417082) rotate(24.000000) translate(-27.700286, -11.417082) "></path>
                <path d="M20.1315408,11.6874784 C17.4165393,11.644547 15.9081131,11.7449936 15.6062621,11.9888181 C15.1534856,12.3545548 15.6010183,12.7948419 16.3861442,12.7066594 C16.9095615,12.647871 18.158027,12.308144 20.1315408,11.6874784 Z" id="Path-12" fill="#5E514B" transform="translate(17.778409, 12.197955) rotate(177.000000) translate(-17.778409, -12.197955) "></path>
                <path d="M47.5022533,1 L55.2679805,3.81802431 C54.0224573,2.89478065 52.8009997,2.24674567 51.6036078,1.87391936 C50.4062159,1.50109305 49.0390977,1.2097866 47.5022533,1 Z" id="Path-15" fill="#D0C1A8"></path>
                <path d="M51.771932,14.0425583 C52.3242168,14.0425583 52.7130531,13.5610115 52.7130531,13.0087267 C52.7130531,12.456442 52.2866621,11.9748952 51.7343774,11.9748952 C51.1820926,11.9748952 50.7324996,12.2985751 50.7324996,12.8508598 C50.7324996,13.4031446 51.2196473,14.0425583 51.771932,14.0425583 Z" id="Oval" fill="#433935"></path>
                <path d="M46.542377,1.75227813 C51.98028,3.30353871 54.9535139,4.19572536 55.4620789,4.42883806 C55.714561,4.54456918 55.8898835,4.78942697 55.9880463,5.16341144 C56.0899002,4.74045297 56.3114545,4.50194902 56.6527092,4.44789958 C57.1645913,4.36682543 57.5262375,4.48865933 57.5262375,4.48865933 C55.729226,3.12989378 52.2215808,2.46547421 50.685017,2.12517294 C49.6606412,1.89830543 48.2797612,1.77400716 46.542377,1.75227813 Z" id="Path-14" fill="#896F55" transform="translate(52.034307, 3.457845) rotate(9.000000) translate(-52.034307, -3.457845) "></path>
                <path d="M39.2943083,18.472513 C39.421453,18.7241398 39.5060568,19.0456087 39.5481198,19.4369198 C39.5901828,19.8282309 39.6133293,20.1198391 39.6175591,20.3117444 C41.7237022,20.0263962 43.8331461,19.895233 45.9458908,19.9182548 C48.0586355,19.9412765 50.1566507,20.2078906 52.2399364,20.7180971 C50.4612169,20.0253346 48.4851132,19.5177406 46.3116254,19.1953152 C44.1381376,18.8728897 41.7990319,18.6319557 39.2943083,18.472513 Z" id="Path-8" fill="#896F55"></path>
                <path d="M57.8307512,16.7940331 C58.854633,17.1531282 60.561776,18.3998144 62.9521801,20.5340918 C65.3425843,22.6683692 67.4611639,24.8374875 69.3079191,27.0414468 C65.2310902,23.2667857 62.4989283,20.903266 61.1114332,19.9508877 C60.3334202,19.4168586 59.1789787,18.3783223 57.6281144,18.472513 C57.0899569,18.5051977 56.3392733,18.9469991 55.3760635,19.7979173 L57.8307512,16.7940331 Z" id="Path-10" fill="#896F55"></path>
                <path d="M34.1592886,39.0658787 L35.3437131,39.4371433 C35.2831778,39.6888889 35.1498036,39.8659404 34.9435903,39.9682977 C34.7373771,40.0706549 34.5109934,40.0721752 34.2644393,39.9728584 L34.1592886,39.0658787 Z" id="Rectangle" fill="#896F55" transform="translate(34.751501, 39.556051) rotate(19.000000) translate(-34.751501, -39.556051) "></path>
                <path d="M34.5699234,37.2185889 L35.710293,37.5971083 C35.6798539,37.8666203 35.5649922,38.0480268 35.3657078,38.1413278 C35.1664234,38.2346288 34.9369179,38.2144481 34.6771913,38.0807857 L34.5699234,37.2185889 Z" id="Rectangle" fill="#896F55" transform="translate(35.140108, 37.708724) rotate(19.000000) translate(-35.140108, -37.708724) "></path>
                <path d="M33.6029371,41.4316966 L34.5845681,41.7144218 C34.5327023,41.9776055 34.4191257,42.1582442 34.2438381,42.2563381 C34.0685506,42.354432 33.8732434,42.3875918 33.6579164,42.3558177 L33.6029371,41.4316966 Z" id="Rectangle" fill="#896F55" transform="translate(34.093753, 41.899588) rotate(19.000000) translate(-34.093753, -41.899588) "></path>
                <path d="M32.7175638,44.2064215 L33.6506753,44.4872526 C33.5988914,44.7412336 33.4839043,44.9247517 33.3057138,45.0378068 C33.1275233,45.150862 32.912059,45.1770028 32.6593209,45.1162294 L32.7175638,44.2064215 Z" id="Rectangle" fill="#896F55" transform="translate(33.154998, 44.677261) rotate(19.000000) translate(-33.154998, -44.677261) "></path>
                <path d="M31.6322945,46.3776282 L32.5830066,46.6934473 C32.449275,46.9741152 32.2895656,47.1622791 32.1038784,47.257939 C31.9181911,47.3535989 31.6680466,47.365132 31.3534447,47.2925381 L31.6322945,46.3776282 Z" id="Rectangle" fill="#896F55" transform="translate(31.968226, 46.858574) rotate(19.000000) translate(-31.968226, -46.858574) "></path>
                <path d="M30.1034568,48.1612058 L30.9179717,48.4001779 C30.7540507,48.7269619 30.5820787,48.9363692 30.4020556,49.0283997 C30.2220325,49.1204302 29.9699426,49.1278097 29.6457858,49.0505382 L30.1034568,48.1612058 Z" id="Rectangle" fill="#896F55" transform="translate(30.281879, 48.632323) rotate(19.000000) translate(-30.281879, -48.632323) "></path>
                <path d="M28.2442207,49.8244699 L29.1657959,50.1344961 C28.9340141,50.3402024 28.7105725,50.4800883 28.495471,50.5541537 C28.2803695,50.6282191 28.0323031,50.62612 27.7512719,50.5478566 L28.2442207,49.8244699 Z" id="Rectangle" fill="#896F55" transform="translate(28.458534, 50.216321) rotate(19.000000) translate(-28.458534, -50.216321) "></path>
                <path d="M24.242241,46.4185625 L24.9663988,46.7277038 C24.8119723,46.9893053 24.6349835,47.1497515 24.4354325,47.2090424 C24.2358815,47.2683332 23.9532582,47.2444475 23.5875626,47.1373853 L24.242241,46.4185625 Z" id="Rectangle" fill="#896F55" transform="translate(24.276981, 46.829652) rotate(19.000000) translate(-24.276981, -46.829652) "></path>
                <path d="M20.1209888,42.4885026 L20.8182122,42.846471 C20.5867961,43.0465778 20.3777535,43.1608266 20.1910844,43.1892173 C20.0044152,43.2176081 19.7824365,43.1689139 19.5251484,43.0431348 L20.1209888,42.4885026 Z" id="Rectangle" fill="#896F55" transform="translate(20.171680, 42.842781) rotate(19.000000) translate(-20.171680, -42.842781) "></path>
                <path d="M16.7599891,38.2339762 L17.1951865,38.5687383 C17.0898658,38.7542681 16.9707069,38.8653718 16.8377098,38.9020491 C16.7047127,38.9387265 16.520875,38.911182 16.2861966,38.8194156 L16.7599891,38.2339762 Z" id="Rectangle" fill="#896F55" transform="translate(16.740692, 38.575868) rotate(19.000000) translate(-16.740692, -38.575868) "></path>
                <path d="M16.6238658,32.4367775 L17.0488296,32.9453957 C16.8567294,33.2152123 16.6969248,33.3598019 16.569416,33.3791645 C16.4419073,33.398527 16.2742701,33.3036604 16.0665045,33.0945645 L16.6238658,32.4367775 Z" id="Rectangle" fill="#896F55" transform="translate(16.557667, 32.909202) rotate(19.000000) translate(-16.557667, -32.909202) "></path>
                <path d="M14.4766252,33.7243793 L14.9025704,34.2343612 C14.6902009,34.4458675 14.5201961,34.5612137 14.392556,34.5803998 C14.264916,34.599586 14.1071519,34.5335081 13.919264,34.3821663 L14.4766252,33.7243793 Z" id="Rectangle" fill="#896F55" transform="translate(14.410917, 34.154009) rotate(19.000000) translate(-14.410917, -34.154009) "></path>
                <path d="M13.3273942,30.3349051 L13.7034608,30.8294353 C13.535359,31.0678651 13.3887361,31.2003431 13.263592,31.2268691 C13.138448,31.2533951 12.9813339,31.1852985 12.7922499,31.0225792 L13.3273942,30.3349051 Z" id="Rectangle" fill="#896F55" transform="translate(13.247855, 30.783676) rotate(19.000000) translate(-13.247855, -30.783676) "></path>
                <path d="M12.1936161,25.821474 L12.540373,26.3670281 C12.3707164,26.5704248 12.2296634,26.6825019 12.1172141,26.7032594 C12.0047648,26.724017 11.8551895,26.6655883 11.6684881,26.5279734 L12.1936161,25.821474 Z" id="Rectangle" fill="#896F55" transform="translate(12.104431, 26.264407) rotate(19.000000) translate(-12.104431, -26.264407) "></path>
                <path d="M11.4311896,20.7797518 L11.6958139,21.3380714 C11.5733446,21.3666136 11.4684794,21.3419605 11.3812182,21.2641121 C11.293957,21.1862638 11.2597137,21.0868139 11.2784883,20.9657626 L11.4311896,20.7797518 Z" id="Rectangle" fill="#896F55" transform="translate(11.484658, 21.064655) rotate(19.000000) translate(-11.484658, -21.064655) "></path>
                <path d="M26.1477976,45.2239053 L26.9631148,45.5162944 C26.7652264,45.8824661 26.5724226,46.1025281 26.3847034,46.1764804 C26.1969842,46.2504328 25.8810134,46.2308036 25.4367908,46.1175928 L26.1477976,45.2239053 Z" id="Rectangle" fill="#896F55" transform="translate(26.199953, 45.722108) rotate(19.000000) translate(-26.199953, -45.722108) "></path>
                <path d="M22.1313431,41.4797408 L22.755539,41.7958019 C22.608866,42.0128585 22.4407958,42.1447959 22.2513282,42.1916141 C22.0618607,42.2384323 21.8254711,42.2064387 21.5421595,42.0956331 L22.1313431,41.4797408 Z" id="Rectangle" fill="#896F55" transform="translate(22.148849, 41.846107) rotate(19.000000) translate(-22.148849, -41.846107) "></path>
                <path d="M18.7084597,37.0368497 L19.3158677,37.5222709 C19.1242176,37.7078833 18.9404966,37.8174421 18.7647048,37.8509475 C18.5889129,37.8844529 18.3766767,37.8503623 18.1279962,37.7486756 L18.7084597,37.0368497 Z" id="Rectangle" fill="#896F55" transform="translate(18.721932, 37.450126) rotate(19.000000) translate(-18.721932, -37.450126) "></path>
                <path d="M19.0357008,30.9557094 L19.5104171,31.5107441 C19.3207304,31.7964707 19.1510799,31.9447458 19.0014655,31.9555694 C18.8518511,31.9663929 18.6793669,31.8428689 18.4840129,31.5849973 L19.0357008,30.9557094 Z" id="Rectangle" fill="#896F55" transform="translate(18.997215, 31.455966) rotate(19.000000) translate(-18.997215, -31.455966) "></path>
                <path d="M15.4869767,28.9383148 L15.9344945,29.5531596 C15.7487664,29.8062119 15.5762292,29.9419205 15.4168829,29.9602855 C15.2575366,29.9786504 15.0841205,29.8828134 14.8966345,29.6727746 L15.4869767,28.9383148 Z" id="Rectangle" fill="#896F55" transform="translate(15.415564, 29.450408) rotate(19.000000) translate(-15.415564, -29.450408) "></path>
                <path d="M14.3496414,24.4017852 L14.7622323,25.099445 C14.5663984,25.3142408 14.3943544,25.4240759 14.2461005,25.4289503 C14.0978466,25.4338248 13.9400878,25.3348332 13.7728243,25.1319757 L14.3496414,24.4017852 Z" id="Rectangle" fill="#896F55" transform="translate(14.267528, 24.915454) rotate(19.000000) translate(-14.267528, -24.915454) "></path>
                <path d="M13.5450332,19.3775744 L13.8827053,20.033756 C13.7152884,20.1784101 13.5636859,20.2510165 13.4278978,20.2515751 C13.2921096,20.2521337 13.1502266,20.1807346 13.0022487,20.0373779 L13.5450332,19.3775744 Z" id="Rectangle" fill="#896F55" transform="translate(13.442477, 19.814576) rotate(19.000000) translate(-13.442477, -19.814576) "></path>
                <path d="M28.1889437,43.6701646 L28.9437117,43.9724447 C28.8477264,44.2482645 28.7127091,44.4232694 28.5386601,44.4974596 C28.364611,44.5716497 28.0955822,44.5688734 27.7315734,44.4891307 L28.1889437,43.6701646 Z" id="Rectangle" fill="#896F55" transform="translate(28.337643, 44.110630) rotate(19.000000) translate(-28.337643, -44.110630) "></path>
                <path d="M24.6083055,39.9327051 L25.3617557,40.3478504 C25.1797427,40.6005847 24.9958477,40.753549 24.8100706,40.8067431 C24.6242934,40.8599373 24.3774558,40.8113874 24.0695576,40.6610936 L24.6083055,39.9327051 Z" id="Rectangle" fill="#896F55" transform="translate(24.715657, 40.380153) rotate(19.000000) translate(-24.715657, -40.380153) "></path>
                <path d="M26.4040328,38.5435354 L27.1192883,38.9264096 C26.9622026,39.1410493 26.79636,39.2762806 26.6217606,39.3321036 C26.4471612,39.3879266 26.2181677,39.3789325 25.9347802,39.3051211 L26.4040328,38.5435354 Z" id="Rectangle" fill="#896F55" transform="translate(26.527034, 38.955848) rotate(19.000000) translate(-26.527034, -38.955848) "></path>
                <path d="M21.2185216,35.5097756 L21.7781139,35.972324 C21.6018531,36.1809738 21.4357835,36.2994461 21.2799049,36.3277409 C21.1240264,36.3560356 20.9146015,36.3057223 20.6516303,36.176801 L21.2185216,35.5097756 Z" id="Rectangle" fill="#896F55" transform="translate(21.214872, 35.922577) rotate(19.000000) translate(-21.214872, -35.922577) "></path>
                <path d="M21.2458241,29.8335063 L21.7267429,30.4040972 C21.5140843,30.6856436 21.3253533,30.8315851 21.1605498,30.8419218 C20.9957464,30.8522584 20.8149564,30.7294936 20.6181801,30.4736274 L21.2458241,29.8335063 Z" id="Rectangle" fill="#896F55" transform="translate(21.172461, 30.338015) rotate(19.000000) translate(-21.172461, -30.338015) "></path>
                <path d="M17.8484376,27.5376002 L18.2854541,28.1571485 C18.0838718,28.3754961 17.9037683,28.4852361 17.7451436,28.4863688 C17.5865189,28.4875015 17.4102676,28.3803059 17.2163896,28.1647822 L17.8484376,27.5376002 Z" id="Rectangle" fill="#896F55" transform="translate(17.750922, 28.011989) rotate(19.000000) translate(-17.750922, -28.011989) "></path>
                <path d="M16.2120681,23.3758423 L16.5940173,24.0244051 C16.3967553,24.2099635 16.2205089,24.2986995 16.0652782,24.290613 C15.9100475,24.2825264 15.7618663,24.1768899 15.6207345,23.9737033 L16.2120681,23.3758423 Z" id="Rectangle" fill="#896F55" transform="translate(16.107376, 23.833481) rotate(19.000000) translate(-16.107376, -23.833481) "></path>
                <path d="M15.2727556,18.3517945 L15.6327905,19.0383077 C15.4543544,19.1993069 15.2860277,19.2719628 15.1278104,19.2562753 C14.969593,19.2405879 14.8395737,19.1383506 14.7377524,18.9495635 L15.2727556,18.3517945 Z" id="Rectangle" fill="#896F55" transform="translate(15.185271, 18.805080) rotate(19.000000) translate(-15.185271, -18.805080) "></path>
                <path d="M29.7931115,41.8787514 L30.6959326,42.1939201 C30.6017726,42.4879249 30.4565814,42.6792583 30.2603592,42.7679202 C30.064137,42.8565822 29.8283766,42.8373796 29.553078,42.7103126 L29.7931115,41.8787514 Z" id="Rectangle" fill="#896F55" transform="translate(30.124505, 42.350665) rotate(19.000000) translate(-30.124505, -42.350665) "></path>
                <path d="M28.2370326,36.820507 L28.9559586,37.1944501 C28.8314839,37.3882438 28.6767302,37.5101294 28.4916972,37.5601068 C28.3066643,37.6100843 28.1192184,37.5806269 27.9293594,37.4717346 L28.2370326,36.820507 Z" id="Rectangle" fill="#896F55" transform="translate(28.442659, 37.202098) rotate(19.000000) translate(-28.442659, -37.202098) "></path>
                <path d="M23.291101,34.3897126 L23.8845129,34.8684742 C23.7209566,35.036922 23.5490202,35.1232387 23.3687036,35.1274241 C23.1883871,35.1316095 23.0042599,35.0535575 22.8163221,34.8932683 L23.291101,34.3897126 Z" id="Rectangle" fill="#896F55" transform="translate(23.350417, 34.758648) rotate(19.000000) translate(-23.350417, -34.758648) "></path>
                <path d="M23.6546182,28.6348978 L24.1630967,29.1919531 C24.0275593,29.438216 23.8734118,29.5573908 23.7006541,29.5494773 C23.5278964,29.5415639 23.3452016,29.4069595 23.1525697,29.1456643 L23.6546182,28.6348978 Z" id="Rectangle" fill="#896F55" transform="translate(23.657833, 29.092372) rotate(19.000000) translate(-23.657833, -29.092372) "></path>
                <path d="M20.2181521,26.5311839 L20.6609441,27.1443056 C20.468298,27.3244558 20.2883567,27.4044838 20.1211202,27.3843895 C19.9538837,27.3642952 19.7997724,27.2441291 19.6587864,27.0238914 L20.2181521,26.5311839 Z" id="Rectangle" fill="#896F55" transform="translate(20.159865, 26.959299) rotate(19.000000) translate(-20.159865, -26.959299) "></path>
                <path d="M18.9076491,21.9744606 L19.2943022,22.604607 C19.1023463,22.7190719 18.9290146,22.7681952 18.7743073,22.751977 C18.6196,22.7357588 18.4838425,22.6542332 18.3670348,22.5074002 L18.9076491,21.9744606 Z" id="Rectangle" fill="#896F55" transform="translate(18.830668, 22.364728) rotate(19.000000) translate(-18.830668, -22.364728) "></path>
                <path d="M17.8814907,16.8749461 L18.2136905,17.5143186 C18.0487342,17.5992551 17.8955171,17.6321486 17.7540394,17.612999 C17.6125617,17.5938495 17.4840643,17.522825 17.3685471,17.3999254 L17.8814907,16.8749461 Z" id="Rectangle" fill="#896F55" transform="translate(17.791119, 17.246615) rotate(19.000000) translate(-17.791119, -17.246615) "></path>
                <path d="M31.0078703,39.4677912 L31.8320809,39.7939351 C31.8204431,40.0340535 31.7319903,40.2058935 31.5667224,40.3094553 C31.4014546,40.4130171 31.1914376,40.4282072 30.9366714,40.3550256 L31.0078703,39.4677912 Z" id="Rectangle" fill="#896F55" transform="translate(31.384376, 39.934134) rotate(19.000000) translate(-31.384376, -39.934134) "></path>
                <path d="M31.8540535,37.081792 L32.67011,37.4394134 C32.6576533,37.6678462 32.5801059,37.8316371 32.4374678,37.9307861 C32.2948296,38.0299351 32.1074996,38.0544212 31.8754777,38.0042445 L31.8540535,37.081792 Z" id="Rectangle" fill="#896F55" transform="translate(32.262082, 37.555664) rotate(19.000000) translate(-32.262082, -37.555664) "></path>
                <path d="M32.3960024,35.2577542 L33.510941,35.7767392 C33.4143664,35.9406162 33.2559248,36.0604839 33.0356161,36.1363422 C32.8153073,36.2122006 32.6199923,36.2141411 32.4496708,36.1421638 L32.3960024,35.2577542 Z" id="Rectangle" fill="#896F55" transform="translate(32.953472, 35.726242) rotate(19.000000) translate(-32.953472, -35.726242) "></path>
                <path d="M30.8861967,33.5258028 L31.6404752,33.9628603 C31.5464763,34.1120994 31.4086942,34.2039578 31.2271287,34.2384357 C31.0455633,34.2729135 30.8804549,34.2385715 30.7318037,34.1354097 L30.8861967,33.5258028 Z" id="Rectangle" fill="#896F55" transform="translate(31.186139, 33.888597) rotate(19.000000) translate(-31.186139, -33.888597) "></path>
                <path d="M27.7360111,32.2555277 L28.3264323,32.704342 C28.1651145,32.834993 27.9860598,32.8966465 27.789268,32.8893026 C27.5924762,32.8819586 27.4315721,32.8076184 27.3065559,32.6662819 L27.7360111,32.2555277 Z" id="Rectangle" fill="#896F55" transform="translate(27.816494, 32.572708) rotate(19.000000) translate(-27.816494, -32.572708) "></path>
                <path d="M29.448504,31.4670696 L30.0435722,31.916095 C29.8802125,32.0191196 29.6969062,32.0663413 29.4936532,32.0577599 C29.2904002,32.0491785 29.1317348,31.9875187 29.017657,31.8727806 L29.448504,31.4670696 Z" id="Rectangle" fill="#896F55" transform="translate(29.530615, 31.762910) rotate(19.000000) translate(-29.530615, -31.762910) "></path>
                <path d="M27.1067822,27.0620876 L27.6472314,27.6468803 C27.5297845,27.8051065 27.3828676,27.8667836 27.2064807,27.8319116 C27.0300938,27.7970396 26.858741,27.6724401 26.6924222,27.458113 L27.1067822,27.0620876 Z" id="Rectangle" fill="#896F55" transform="translate(27.169827, 27.451723) rotate(19.000000) translate(-27.169827, -27.451723) "></path>
                <path d="M24.4606975,24.9009976 L24.8964949,25.5672011 C24.7182101,25.6989427 24.5376888,25.7376204 24.3549312,25.6832341 C24.1721735,25.6288478 24.0478821,25.4994619 23.9820569,25.2950764 L24.4606975,24.9009976 Z" id="Rectangle" fill="#896F55" transform="translate(24.439276, 25.304035) rotate(19.000000) translate(-24.439276, -25.304035) "></path>
                <path d="M26.2891384,24.2344089 L26.6638208,24.887863 C26.5028617,24.9504219 26.3353622,24.9542871 26.161322,24.8994587 C25.9872819,24.8446302 25.8718478,24.7516314 25.8150199,24.6204624 L26.2891384,24.2344089 Z" id="Rectangle" fill="#896F55" transform="translate(26.239420, 24.586140) rotate(19.000000) translate(-26.239420, -24.586140) "></path>
                <path d="M29.829322,35.0303033 L30.5709386,35.4140901 C30.469778,35.5571291 30.3224446,35.6483564 30.1289385,35.6877723 C29.9354324,35.7271881 29.7586671,35.7019773 29.5986427,35.6121399 L29.829322,35.0303033 Z" id="Rectangle" fill="#896F55" transform="translate(30.084791, 35.368053) rotate(19.000000) translate(-30.084791, -35.368053) "></path>
                <path d="M25.7877326,33.1092292 L26.3443105,33.5505381 C26.2074552,33.734443 26.0447158,33.8361094 25.856092,33.8555373 C25.6674683,33.8749652 25.4593179,33.8114997 25.2316409,33.6651408 L25.7877326,33.1092292 Z" id="Rectangle" fill="#896F55" transform="translate(25.787976, 33.484091) rotate(19.000000) translate(-25.787976, -33.484091) "></path>
                <path d="M25.4203673,27.8302134 L25.9457206,28.3896244 C25.7829624,28.5928307 25.6116176,28.6899737 25.4316862,28.6810535 C25.2517548,28.6721332 25.0748183,28.5577238 24.9008766,28.3378253 L25.4203673,27.8302134 Z" id="Rectangle" fill="#896F55" transform="translate(25.423299, 28.255915) rotate(19.000000) translate(-25.423299, -28.255915) "></path>
                <path d="M22.3642019,25.679572 L22.8310677,26.2917113 C22.6219656,26.4518602 22.4287192,26.5184002 22.2513287,26.4913315 C22.0739382,26.4642627 21.9310066,26.3464239 21.822534,26.1378151 L22.3642019,25.679572 Z" id="Rectangle" fill="#896F55" transform="translate(22.326801, 26.088387) rotate(19.000000) translate(-22.326801, -26.088387) "></path>
                <path d="M20.9456809,21.0505609 L21.2999156,21.7445028 C21.1429758,21.8780206 20.9819153,21.9334782 20.8167341,21.9108756 C20.6515529,21.888273 20.5007286,21.7901386 20.3642612,21.6164723 L20.9456809,21.0505609 Z" id="Rectangle" fill="#896F55" transform="translate(20.832088, 21.483172) rotate(19.000000) translate(-20.832088, -21.483172) "></path>
                <path d="M20.0064582,15.8899843 L20.197933,16.5193258 C20.0454989,16.6026752 19.9084555,16.6393579 19.7868028,16.6293741 C19.66515,16.6193903 19.5445619,16.5615642 19.4250385,16.4558958 L20.0064582,15.8899843 Z" id="Rectangle" fill="#896F55" transform="translate(19.811486, 16.260480) rotate(19.000000) translate(-19.811486, -16.260480) "></path>
            </g>
        </g>
    </g>
</svg>