<?xml version="1.0" encoding="UTF-8"?>
<svg width="80px" height="60px" viewBox="0 0 80 60" version="1.1" xmlns="http://www.w3.org/2000/svg" xmlns:xlink="http://www.w3.org/1999/xlink">
    <!-- Generator: Sketch 61.2 (89653) - https://sketch.com -->
    <title>Up Wings-facing left</title>
    <desc>Created with Sketch.</desc>
    <g id="Up-Wings-facing-left" stroke="none" stroke-width="1" fill="none" fill-rule="evenodd">
        <g id="Group-3" transform="translate(36.733285, 27.186109) scale(-1, 1) translate(-36.733285, -27.186109) translate(5.233285, -5.313891)">
            <path d="M35.3842491,47.7748148 C39.1377405,46.0900579 42.1083982,45.058388 44.2962221,44.6798051 C47.577958,44.1119309 51.5143846,44.6094397 54.1877555,45.3794494 C56.8611264,46.1494591 60.3196325,48.9786645 60.4964356,49.092282 C60.6143043,49.168027 60.6143043,49.2817806 60.4964356,49.433543 L60.4964356,56.9168667 L58.2777278,61.2722471 L54.1877555,63.1446359 L47.577958,62.2145758 L42.2514824,63.4349639 L34.3895863,60.6063919 L33.1730019,55.6478318 L35.3842491,47.7748148 Z" id="Body" stroke="#AD8C6A" fill="#AC8C6C"></path>
            <path d="M51.5994527,51.3409191 C48.76691,55.6307758 51.2888253,61.4820141 54.2001619,63.131743 C57.1114985,64.781472 61.2949292,59.0470577 61.6261549,56.4872434 C61.9573807,53.927429 60.9954419,49.8239899 59.903959,48.855224 C58.812476,47.8864582 54.4319954,47.0510623 51.5994527,51.3409191 Z" id="Face" stroke="#D0C1A7" stroke-width="0.5" fill="#D0C1A8"></path>
            <path d="M49.1615107,51.9134117 C47.3411177,57.2034532 50.8618864,60.7785811 53.8733365,62.8384669 C56.8847867,64.8983527 61.2551366,58.5553833 61.6341839,55.9955689 C62.0132311,53.4357545 62.1947865,50.4743411 60.4964356,48.455351 C58.7980847,46.436361 50.9819036,46.6233702 49.1615107,51.9134117 Z" id="Face-Outline" stroke="#D0C1A8"></path>
            <path d="M36.7582622,45.9011352 C41.7300531,43.6406515 44.8089599,43.8751239 45.9949827,46.6045523 C47.1810054,49.3339808 48.4787958,50.4434787 49.8883538,49.933046 C48.0425959,54.7743513 46.9827007,55.4582897 46.7086683,51.9848612 C46.434636,48.5114327 43.1178339,46.483524 36.7582622,45.9011352 Z" id="Rectangle" fill="#D0C1A8"></path>
            <path d="M41.7505936,52.5198063 C43.7585918,52.1403002 45.2162402,51.9627188 46.1235386,51.9870623 C47.0308371,52.0114057 47.8759953,52.2507729 48.6590133,52.7051638 C48.3707528,54.8158561 48.4071648,56.4207369 48.7682493,57.5198063 C49.1293337,58.6188757 50.1750531,60.1921615 51.9054074,62.2396637 L43.1910048,62.5198063 C42.3080612,60.1710663 41.7817234,58.4075177 41.6119915,57.2291605 C41.4422596,56.0508033 41.4884603,54.4810186 41.7505936,52.5198063 Z" id="Body-Highlight" fill="#D0C1A8"></path>
            <path d="M49.6730925,58.6809073 C50.733003,60.3368292 51.9034741,61.4373859 53.1845058,61.9825775 C54.4655376,62.527769 55.4129377,63.0152725 56.0267062,63.4450878 C54.3466615,62.8917874 53.4993892,62.6635393 53.4848891,62.7603434 C53.3892806,63.3986362 51.9054074,62.2396637 51.2676095,61.6019937 C50.8424108,61.1768803 50.3109052,60.2031849 49.6730925,58.6809073 Z" id="Rectangle" fill="#896F55"></path>
            <path d="M48.8107882,55.34933 C49.6798351,57.2620736 50.5153988,58.4922149 51.3174793,59.039754 C52.1195598,59.5872931 52.5352567,59.9361211 52.5645698,60.0862378 C52.6983656,60.2075017 52.7580135,60.3165356 52.7435134,60.4133397 C52.6479049,61.0516325 51.6329617,59.9181752 50.6748391,59.060976 C50.0360908,58.4895099 49.4147404,57.2522945 48.8107882,55.34933 Z" id="Rectangle" fill="#AC8C6C" transform="translate(50.778214, 57.974746) scale(-1, 1) rotate(-121.000000) translate(-50.778214, -57.974746) "></path>
            <path d="M55.746925,54.5375973 C56.3047816,56.7494553 56.6233015,58.1829807 56.7024848,58.8381735 C56.7816681,59.4933663 56.9343652,60.541501 57.1605762,61.9825775 C57.2755178,60.7755252 57.2585804,59.4349389 57.1097641,57.9608186 C56.9609477,56.4866983 56.506668,55.3456245 55.746925,54.5375973 Z" id="Path-11" fill="#AD8C6A"></path>
            <path d="M55.746925,54.5375973 C56.3047816,56.7494553 56.6233015,58.1829807 56.7024848,58.8381735 C56.7816681,59.4933663 56.9343652,60.541501 57.1605762,61.9825775 C57.2755178,60.7755252 57.2585804,59.4349389 57.1097641,57.9608186 C56.9609477,56.4866983 56.506668,55.3456245 55.746925,54.5375973 Z" id="Path-11" fill="#896F55"></path>
            <path d="M59.922897,54.1385398 C59.9805696,53.8558407 59.1071517,55.6763502 59.3436406,58.5501669 C59.5012999,60.4660447 60.062117,62.2690871 61.0260918,63.9592943 C60.2825139,61.9774948 59.8265537,60.1362166 59.6582112,58.43546 C59.4056974,55.884325 59.8652244,54.4212388 59.922897,54.1385398 Z" id="Path-11" fill="#896F55" transform="translate(60.164509, 59.034504) scale(-1, 1) rotate(-23.000000) translate(-60.164509, -59.034504) "></path>
            <path d="M53.0151198,53.5130872 C52.9853007,53.2764629 53.2517622,53.9423782 53.4719278,54.1905398 C53.6743727,54.4187273 54.9198776,53.7812154 55.6677578,54.4192749 C56.0665844,54.7595368 56.3049246,55.4796244 56.4014269,56.1047435 C56.4738385,56.3839222 56.5226327,56.6722941 56.5477789,56.9695074 C56.6157864,57.7733182 56.6157864,58.0882978 56.5477789,57.9144461 C56.4630462,57.6970109 56.38194,57.5300654 56.3044603,57.4136097 C56.2489919,57.3302379 56.0571552,57.1544628 55.7289503,56.8862842 C55.4717236,56.6931355 55.1079827,56.4672412 54.5585771,56.3368331 C53.2553582,56.1988083 53.0919189,54.1225124 53.0151198,53.5130872 Z" id="Eye" fill="#5E514B"></path>
            <path d="M57.1542161,62.7283512 C57.8139585,62.8249879 58.2783703,63.5304242 58.4572868,63.4089397 C58.6362033,63.2874553 58.4641716,62.3913191 58.0080957,61.8950876 C57.5520197,61.3988562 57.229038,61.5853475 57.0941742,61.7460326 C56.9593105,61.9067177 56.4944738,62.6317146 57.1542161,62.7283512 Z" id="Beak" fill="#896F55" transform="translate(57.668004, 62.498488) rotate(56.000000) translate(-57.668004, -62.498488) "></path>
            <path d="M49.8883538,44.0619601 L58.3683332,46.4511171 C57.093103,45.745197 55.856792,45.2058238 54.6594001,44.8329974 C53.4620082,44.4601711 51.8716594,44.2031587 49.8883538,44.0619601 Z" id="Path-15" fill="#D0C1A8"></path>
            <path d="M54.8058039,56.3564494 C55.3580886,56.3564494 55.746925,55.8749026 55.746925,55.3226179 C55.746925,54.7703331 55.320534,54.2887863 54.7682493,54.2887863 C54.2159645,54.2887863 53.7663715,54.6124662 53.7663715,55.1647509 C53.7663715,55.7170357 54.2535191,56.3564494 54.8058039,56.3564494 Z" id="Oval" fill="#433935"></path>
            <path d="M49.5995643,44.8982651 C54.978313,45.8960184 57.9219699,46.5114514 58.4305349,46.7445641 C58.683017,46.8602953 58.8583395,47.105153 58.9565023,47.4791375 C59.0583562,47.056179 59.2799105,46.8176751 59.6211652,46.7636257 C60.1330472,46.6825515 60.4946935,46.8043854 60.4946935,46.8043854 C58.697682,45.4456199 55.8624578,45.5608309 54.3258941,45.2205297 C53.3015183,44.9936622 51.726075,44.8862406 49.5995643,44.8982651 Z" id="Path-14" fill="#896F55" transform="translate(55.047129, 46.188247) rotate(9.000000) translate(-55.047129, -46.188247) "></path>
            <path d="M6.30092009,57.6321532 C7.0013003,57.1727343 3.79286615,56.246666 4.49042693,55.8473315 C9.13312353,53.1895147 14.10887,54.4824256 16.1150045,53.8138911 C16.6247002,53.6440375 34.8429396,47.4921936 40.4553909,49.9505846 C44.8793549,51.8883891 43.1810063,61.4600631 44.23948,62.8305664 C45.6324627,64.6341891 32.7576025,64.2798955 27.7572203,63.8914765 C24.4236322,63.6325305 21.7085681,62.6412244 19.6120278,60.9175583 C13.912444,61.2425475 11.062652,61.3430372 11.062652,61.2190272 C11.062652,60.8147327 10.1544566,61.122257 8.3380657,62.1416002 C7.62977884,62.3412184 7.04468215,62.2767877 6.58277562,61.9483081 C5.88991583,61.4555887 6.85600905,60.617258 6.40846142,60.613786 C5.9591522,60.6103003 3.96476761,60.6853502 3.63783088,60.613786 C2.79792681,60.429937 3.28353602,59.6114256 6.30092009,57.6321532 Z" id="Tail" fill="#D0C1A8"></path>
            <path d="M8.08059339,57.3408576 C8.7809736,56.8814387 3.79286615,56.246666 4.49042693,55.8473315 C7.41194138,54.1748444 13.466325,54.4435317 17.9865831,54.6208793 C20.6496497,54.725362 23.6654178,54.1325745 23.4648271,54.475312 C23.2642365,54.8180495 22.2809839,55.2484496 19.5161022,57.1025119 C18.8964784,57.5180166 17.1754251,58.4673732 14.3529423,59.9505818 C12.1594154,60.920222 11.062652,61.3430372 11.062652,61.2190272 C11.062652,60.6125854 8.5274757,62.5424821 7.73680095,62.131743 C6.94612619,61.7210039 8.00951603,60.6470624 6.57707285,60.4220061 C5.14462967,60.1969497 2.7187515,60.8579922 8.08059339,57.3408576 Z" id="Tail" fill="#896F55"></path>
            <path d="M19.6120278,60.9175583 C17.2295096,62.5806467 15.403962,63.8017804 14.1353849,64.5809595 C14.0477312,64.6347977 13.5510783,64.6281133 13.2045867,64.6281133 C13.1912541,64.6281133 11.6454681,64.4245845 11.6454681,64.3151214 C11.6454681,64.2056584 13.7866101,63.8235905 13.5299534,63.779144 C13.3795153,63.7530919 11.6454681,64.2056584 11.3526602,64.2056584 C11.0598524,64.2056584 9.03724978,63.6634291 8.93857744,63.564224 C8.89174726,63.517141 10.0619796,63.779144 10.2185615,63.779144 C10.3751435,63.779144 12.4655985,63.2742488 12.4951264,63.2296752 C12.5148116,63.1999594 12.68962,62.7926795 13.0195516,62.0078353 C12.6565999,62.5791544 12.4420946,62.8882123 12.3760357,62.935009 C12.2769473,63.0052041 10.2185615,63.564224 9.97353847,63.564224 C9.72851542,63.564224 8.05480715,63.0103242 8.05480715,62.935009 C8.05480715,62.8596939 9.72851542,62.935009 9.97353847,62.935009 C10.2185615,62.935009 11.8679524,62.2807622 11.9873699,62.1896527 C12.0669817,62.1289129 12.1539789,61.9774254 12.2483618,61.7351899 C10.8951616,62.3592066 10.1368872,62.6712149 9.97353847,62.6712149 C9.72851542,62.6712149 7.98627593,62.6952495 7.91045347,62.6712149 C7.45724511,62.5275548 11.062652,61.4050422 11.062652,61.2190272 C11.062652,61.0562377 14.1750094,60.0009269 20.3997243,58.0530946 L19.6120278,60.9175583 Z" id="Tail" fill="#AC8C6C"></path>
            <path d="M42.0294226,47.5083944 C41.3083382,47.4648756 41.1693365,47.7060353 41.6124176,48.2318735 C42.2770391,49.0206308 39.7973856,48.0442906 40.8228262,49.2304153 C41.0826097,49.5309062 43.4637768,53.7500751 43.3978413,57.5029804 C43.3906283,57.9135273 43.8879215,56.8853628 43.8879215,55.7806111 C43.8879215,53.7373019 43.3387869,49.4016324 43.2057594,49.1395929 C42.9592177,48.6539512 42.5671054,48.1102183 42.0294226,47.5083944 Z" id="Left-Wing-Shadow" fill="#896F55" transform="translate(42.229392, 52.549336) rotate(-21.000000) translate(-42.229392, -52.549336) "></path>
            <path d="M47.9198149,43.734652 C47.3171853,43.0112909 47.5646488,41.1310783 48.6622054,38.0940144 C49.7597619,35.0569505 51.783069,30.6536823 54.7321266,24.88421 C56.7488648,21.682002 57.9609337,19.5116289 58.3683332,18.3730907 C58.9794326,16.6652834 58.9794326,16.6652834 58.9146829,15.2382616 C58.8499332,13.8112398 56.0520637,11.3052257 52.6464864,10.5528214 C51.9854315,10.4067726 50.4542601,10.675224 49.8883538,11.1274762 C49.2951136,11.6015728 49.5917337,12.4101311 50.7782141,13.5531513 C46.2524147,11.9644531 43.9895149,11.7009918 43.9895149,12.7627673 C43.9895149,13.8245428 44.4889388,14.6497076 45.4877865,15.2382616 C42.3740345,14.2008013 40.589048,13.974333 40.1328272,14.5588567 C39.6766065,15.1433804 40.1980896,15.992258 41.6972768,17.1054895 C38.4046004,16.6552052 36.7582622,16.9304094 36.7582622,17.9311021 C36.7582622,18.9317948 37.2588649,19.7596847 38.2600704,20.4147717 C35.3512894,20.4209628 33.8968989,20.8529968 33.8968989,21.7108737 C33.8968989,22.5687505 34.4952828,23.3252485 35.6920506,23.9803675 C35.6505524,24.0128868 35.3421074,24.1635431 34.7667155,24.4323364 C33.9036276,24.8355262 31.193045,22.3187566 31.5174184,24.4323364 C31.7336673,25.8413895 33.1252114,27.8431932 35.6920506,30.4377475 L38.5698795,40.5218944 L40.8171584,44.8329974 L47.9198149,43.734652 Z" id="Right-WIng" stroke="#AE8C68" fill="#AD8C6A"></path>
            <path d="M33.6603326,33.4233457 C34.1327012,32.116248 34.4729747,30.450177 36.7582622,29.2582671 C37.9510622,28.6361528 44.3631926,30.2424697 46.9876186,24.4323364 C47.4275125,23.4584692 43.323308,23.9803675 43.4392215,22.1274759 C43.5551351,20.2745843 46.3731332,19.8400231 48.0009288,19.8400231 C49.6287243,19.8400231 54.7381383,19.8469807 56.3203451,17.9311021 C57.9025518,16.0152235 56.5896573,13.0740459 56.3203451,12.7627673 C56.0510329,12.4514887 56.0520637,11.3052257 52.6464864,10.5528214 C51.9854315,10.4067726 50.4542601,10.675224 49.8883538,11.1274762 C49.2951136,11.6015728 49.5917337,12.4101311 50.7782141,13.5531513 C46.2524147,11.9644531 43.9895149,11.7009918 43.9895149,12.7627673 C43.9895149,13.8245428 44.4889388,14.6497076 45.4877865,15.2382616 C42.3740345,14.2008013 40.589048,13.974333 40.1328272,14.5588567 C39.6766065,15.1433804 40.1980896,15.992258 41.6972768,17.1054895 C38.4046004,16.6552052 36.7582622,16.9304094 36.7582622,17.9311021 C36.7582622,18.9317948 37.2588649,19.7596847 38.2600704,20.4147717 C35.3512894,20.4209628 33.8968989,20.8529968 33.8968989,21.7108737 C33.8968989,22.5687505 34.4952828,23.3252485 35.6920506,23.9803675 C35.6505524,24.0128868 35.3421074,24.1635431 34.7667155,24.4323364 C33.9036276,24.8355262 31.193045,22.3187566 31.5174184,24.4323364 C31.8417918,26.5459161 32.0139978,37.9789416 33.6603326,33.4233457 Z" id="Right-WIng" stroke="#D0C1A8" fill="#D0C1A8"></path>
            <path d="M36.6476471,30.2448964 C37.787887,28.276948 38.8252154,27.3959039 39.7596323,27.6017642 C42.5050015,28.2065933 42.9704655,30.2059922 44.7027051,31.2651246 C45.5076703,31.7572995 47.6279446,27.170403 49.8700694,30.5385285 C51.0367155,32.2910672 55.3632744,33.7297553 59.428706,35.486938 C60.2503865,35.8420892 61.0459512,36.4804202 61.8154003,37.4019311 C58.6942755,36.6017168 56.7283332,36.1089 55.9175734,35.9234805 C53.7144204,35.4196229 51.7837537,35.086901 50.7054678,34.8815877 C47.4925279,34.2698208 44.7669943,34.0282308 44.1201647,33.971069 C42.190971,33.8005819 40.1604144,33.8956811 39.7409656,33.9168786 C38.945749,33.957066 38.5278155,34.3058823 38.4889704,34.3634455 C38.4668228,34.3962654 38.3735263,34.5204486 38.2090809,34.7359951 L36.6476471,30.2448964 Z" id="Rectangle" fill="#D0C1A8" transform="translate(49.231524, 32.487226) rotate(-75.000000) translate(-49.231524, -32.487226) "></path>
            <path d="M38.8347561,45.2565386 C40.4298098,44.7688609 41.9259937,44.370668 43.323308,44.0619601 C45.3175463,43.6213741 47.1737904,43.502822 47.5144938,43.4335638 C48.0313387,43.3284995 48.4563193,43.511214 48.7894358,43.9817073 C47.177685,44.3135466 45.9455722,44.5450611 45.0930975,44.6762509 C44.2406229,44.8074406 42.8472676,45.0769379 40.9130318,45.4847427 L38.8347561,45.2565386 Z" id="Rectangle" fill="#5E514B"></path>
            <path d="M37.8460584,51.5249882 C40.4669334,50.8201527 42.0610238,49.0315193 42.0610238,47.4729281 C42.0610238,45.914337 39.4960737,43.9494917 37.8460584,39.5666786 C36.196043,35.1838656 38.6270417,36.8144384 35.5948792,30.2973893 C33.5734376,25.9526898 31.0016517,21.9020693 27.8795216,18.1455277 C21.1082858,13.6127467 16.5706837,10.6912781 14.2667155,9.38112167 C11.9627472,8.07096529 9.54307636,7.03616614 7.00770293,6.27672424 C3.90865732,5.90775859 2.10710835,5.90775859 1.60305603,6.27672424 C1.09900372,6.6456899 1.4868902,7.68048904 2.76671547,9.38112167 C0.97380138,9.00618421 0.0773443359,9.16885323 0.0773443359,9.86912872 C0.0773443359,10.5694042 0.585914902,11.2062302 1.60305603,11.7796066 C0.299606471,12.2175638 -0.208964095,13.0329228 0.0773443359,14.2256836 C0.363652767,15.4184444 1.26010981,16.2190204 2.76671547,16.6274115 C1.16522222,16.9868831 0.457306679,17.4929218 0.642968851,18.1455277 C0.828631024,18.7981335 1.85592046,19.4146997 3.72483716,19.9952263 C1.93550466,20.4862829 1.22824429,21.1329234 1.60305603,21.9351477 C1.97786778,22.7373719 3.26414584,23.3300257 5.4618902,23.713109 C3.66510705,23.7088728 2.76671547,24.1407772 2.76671547,25.0088224 C2.76671547,25.8768675 3.66510705,26.3108901 5.4618902,26.3108901 C4.05764344,27.0651767 3.47862576,27.9181649 3.72483716,28.8698546 C3.97104856,29.8215444 5.06533715,30.2973893 7.00770293,30.2973893 C5.51612227,30.9881467 4.88559165,31.6974913 5.11611107,32.425423 C5.34663049,33.1533548 6.11662362,33.5173206 7.42609047,33.5173206 C6.40540778,34.3721417 6.00724526,35.0818491 6.23160292,35.6464428 C6.45596057,36.2110366 7.14316108,36.3824829 8.29320444,36.1607818 C7.40972357,37.4830007 7.40972357,38.6182996 8.29320444,39.5666786 C9.1766853,40.5150576 10.6449773,40.9559075 12.6980803,40.8892281 C10.9095046,41.4389438 10.0152168,42.15152 10.0152168,43.0269564 C10.0152168,43.9023928 10.9095046,44.0743608 12.6980803,43.5428604 C11.9771935,44.7054216 11.7471739,45.6134669 12.0080216,46.2669963 C12.2688693,46.9205256 13.0217672,47.3225029 14.2667155,47.4729281 C13.7629184,48.2756239 13.7629184,48.9084303 14.2667155,49.3713472 C14.7705126,49.8342641 15.6843875,50.0411771 17.0083403,49.9920861 C17.2582021,51.9200152 19.0807507,52.7436701 22.475986,52.4630508 C25.8712214,52.1824316 28.4189338,51.5895744 30.1191233,50.6844794 C33.5231633,51.7147089 36.0988083,51.9948785 37.8460584,51.5249882 Z" id="Left-WIng" stroke="#D0C1A8" fill="#D0C1A8"></path>
            <path d="M16.6744349,45.2074303 C20.510781,45.8924401 23.0948287,46.68586 24.4265777,47.58769 C25.7583268,48.4895199 27.3077724,49.4481152 29.0749146,50.4634759 C26.7575418,48.7639004 25.2050194,47.6290345 24.4173473,47.0588781 C23.6296752,46.4887217 21.0487044,45.8715724 16.6744349,45.2074303 Z" id="Path-15" fill="#AC8C6C" transform="translate(22.874675, 47.835453) scale(-1, 1) rotate(1.000000) translate(-22.874675, -47.835453) "></path>
            <path d="M13.5238065,43.5592377 C17.4012505,43.8713817 20.0635297,44.3768732 21.5106442,45.0757121 C22.9577587,45.774551 24.7100028,46.6560483 26.7673766,47.7202039 C24.2855694,46.2416683 22.6508297,45.2173224 21.8631576,44.6471659 C21.0754855,44.0770095 18.2957018,43.7143668 13.5238065,43.5592377 Z" id="Path-15" fill="#AC8C6C" transform="translate(20.145592, 45.639721) scale(-1, 1) rotate(1.000000) translate(-20.145592, -45.639721) "></path>
            <path d="M11.7119526,41.2134588 C15.762306,41.5519362 18.6501911,41.9135537 20.375608,42.2983112 C22.101025,42.6830687 24.0346808,43.3010818 26.1765755,44.1523505 C23.8524357,42.9318542 21.9904222,42.1997536 20.5905352,41.9560487 C19.1906482,41.7123438 16.2311206,41.4648139 11.7119526,41.2134588 Z" id="Path-15" fill="#AC8C6C" transform="translate(18.944264, 42.682905) scale(-1, 1) rotate(1.000000) translate(-18.944264, -42.682905) "></path>
            <path d="M2.64423161,25.1553988 C11.313906,26.5832236 16.5114516,27.4895147 18.2368685,27.8742722 C19.9622855,28.2590297 22.5311944,29.023088 25.9435954,30.1664472 C22.3784904,28.6054561 19.8959944,27.7031081 18.4961074,27.4594033 C17.0962204,27.2156984 11.8122618,26.4476969 2.64423161,25.1553988 Z" id="Path-15" fill="#AC8C6C" transform="translate(14.293913, 27.660923) scale(-1, 1) rotate(-32.000000) translate(-14.293913, -27.660923) "></path>
            <path d="M4.09286299,26.2128343 C11.8065145,28.2598418 16.6112544,29.5335563 18.5070825,30.0339777 C20.4029107,30.534399 23.1964799,31.6135447 26.8877903,33.2714147 C22.9410801,31.2836793 20.5845676,30.190676 19.8182526,29.9924049 C19.0519376,29.7941338 13.8101411,28.534277 4.09286299,26.2128343 Z" id="Path-15" fill="#AC8C6C" transform="translate(15.490327, 29.742124) scale(-1, 1) rotate(-32.000000) translate(-15.490327, -29.742124) "></path>
            <path d="M5.85952459,28.8138345 C11.1593035,30.713412 15.1350125,32.1788078 17.7866516,33.2100219 C20.4382907,34.241236 22.9745642,35.319243 25.3954723,36.444043 C21.7660963,34.4806637 19.5682509,33.3998385 18.8019359,33.2015674 C18.0356209,33.0032963 13.7214838,31.5407187 5.85952459,28.8138345 Z" id="Path-15" fill="#AC8C6C" transform="translate(15.627498, 32.628939) scale(-1, 1) rotate(-32.000000) translate(-15.627498, -32.628939) "></path>
            <path d="M7.19953562,30.8448876 C12.4567077,33.0383684 16.3422247,34.735752 18.8560864,35.9370383 C21.3699482,37.1383247 23.42935,38.2761253 25.0342917,39.3504402 C22.5921047,37.5589444 20.8272322,36.4107998 19.7396744,35.9060064 C18.6521165,35.4012129 14.4720703,33.7141733 7.19953562,30.8448876 Z" id="Path-15" fill="#AC8C6C" transform="translate(16.116914, 35.097664) scale(-1, 1) rotate(-32.000000) translate(-16.116914, -35.097664) "></path>
            <path d="M8.17460556,34.1244844 C13.6200009,36.3813404 17.5996295,38.1104116 20.1134912,39.311698 C22.627353,40.5129843 24.3137428,41.3650486 25.1726606,41.8678907 C23.3418621,40.4533874 21.882684,39.493739 20.7951261,38.9889456 C19.7075683,38.4841521 15.5007281,36.8626651 8.17460556,34.1244844 Z" id="Path-15" fill="#AC8C6C" transform="translate(16.673633, 37.996188) scale(-1, 1) rotate(-32.000000) translate(-16.673633, -37.996188) "></path>
            <polygon id="Path-15" fill="#AC8C6C" transform="translate(18.377404, 40.518915) rotate(-14.000000) translate(-18.377404, -40.518915) " points="10.6052846 39.3513446 16.7998192 40.079748 26.1495237 41.6864854 16.7917687 39.6185396"></polygon>
            <path d="M5.63916344,14.8848663 C11.4588587,20.7257 15.4879697,24.9163094 17.7264963,27.4566945 C19.965023,29.9970796 22.0326723,32.72536 23.9294444,35.6415358 C21.5483167,31.2018631 19.3092575,27.9757725 17.2122669,25.9632639 C15.1152764,23.9507553 11.2575752,20.2579561 5.63916344,14.8848663 Z" id="Path-15" fill="#AC8C6C" transform="translate(14.784304, 25.263201) scale(1, -1) rotate(109.000000) translate(-14.784304, -25.263201) "></path>
            <path d="M2.53426402,6.70851537 C14.6928577,14.1506453 21.6147136,18.489587 23.2998319,19.7253403 C24.9849501,20.9610937 26.6118399,22.5431814 28.1805012,24.4716033 C27.1502793,23.0329208 25.8606865,21.5154745 24.3117227,19.9192644 C22.762759,18.3230543 15.503606,13.9194713 2.53426402,6.70851537 Z" id="Path-15" fill="#AC8C6C" transform="translate(15.357383, 15.590059) scale(-1, 1) rotate(-61.000000) translate(-15.357383, -15.590059) "></path>
            <path d="M1.67864323,9.85105761 C12.4087925,16.2392457 18.6164262,20.0512165 20.3015444,21.2869698 C21.9866626,22.5227232 24.0531561,24.4028873 26.5010249,26.9274621 C25.2531944,25.4276042 23.8547973,23.8795702 22.3058335,22.2833601 C20.7568697,20.68715 13.8811396,16.5430492 1.67864323,9.85105761 Z" id="Path-15" fill="#AC8C6C" transform="translate(14.089834, 18.389260) scale(-1, 1) rotate(-61.000000) translate(-14.089834, -18.389260) "></path>
            <path d="M3.37300169,12.8434614 C10.4114162,18.2052282 14.7731826,21.5039883 16.4583008,22.7397416 C18.143419,23.975495 21.1247578,26.6579304 25.4023173,30.7870479 C21.7116818,26.7144469 19.0303557,24.0185962 17.358339,22.6994957 C15.6863222,21.3803952 11.0245431,18.0950504 3.37300169,12.8434614 Z" id="Path-15" fill="#AC8C6C" transform="translate(14.387659, 21.815255) scale(-1, 1) rotate(-61.000000) translate(-14.387659, -21.815255) "></path>
            <path d="M34.4198254,47.7187316 C32.9235715,47.6502041 32.6351423,48.0299497 33.5545378,48.8579686 C34.933631,50.0999968 32.2920309,50.1796695 34.4198254,52.0474181 C34.9588774,52.5205905 35.2082205,57.6254786 36.1625704,57.5260128 C36.42111,57.4990668 37.7877912,53.6991316 37.7877912,51.959518 C37.7877912,48.7419912 38.1698674,48.9163917 37.8938349,48.5037675 C37.3822594,47.7390446 36.2242563,47.4773659 34.4198254,47.7187316 Z" id="Left-Wing-Shadow" fill="#896F55" transform="translate(35.511823, 52.579661) rotate(-60.000000) translate(-35.511823, -52.579661) "></path>
            <path d="M27.1759903,63.5486102 C30.1749034,63.643224 33.9502273,63.7972138 37.4601487,63.4450878 C42.4453898,62.9449533 46.9260168,61.8522014 48.1509237,61.8017856 C49.638947,61.7405403 51.948477,62.152285 55.0930459,63.1190781 C55.3562803,63.2000091 55.7664465,63.3431865 56.3235445,63.5486102 C56.0992207,63.6336896 55.9232682,63.6933054 55.7956871,63.7274577 C55.668106,63.76161 55.4941464,63.7956625 55.2738082,63.8296152 C52.8179965,63.4387358 50.6130649,63.1725184 48.6590133,63.0309631 C46.989765,62.9100395 46.3813633,62.9493903 45.0632513,63.3448514 C44.7519729,63.4382415 40.229491,64.9193451 32.6109006,64.1904503 C31.0820636,64.0441816 26.9574745,64.1322933 23.9518463,63.3448514 C22.7705917,63.0353756 21.3693988,62.2653712 19.7482676,61.0348384 C22.0249538,62.6262878 24.5008614,63.4642117 27.1759903,63.5486102 Z" id="Body-Shadow" fill="#5E514B"></path>
            <path d="M33.2006493,64.237031 L34.2294433,64.3064247 C35.0263899,64.3674924 35.5683516,64.3958281 35.8553284,64.3914319 C36.4497122,64.3823266 36.9314951,64.3914319 37.1016611,64.3914319 C42.9076508,62.9288862 46.867018,62.2091242 48.9797627,62.2321459 C51.0925074,62.2551676 53.1905226,62.5217817 55.2738082,63.0319883 C53.4950887,62.3392257 51.5189851,61.8316317 49.3454973,61.5092063 C47.5755973,61.246651 45.9769376,61.7617167 40.4235975,62.8962683 C39.5793839,63.0687417 37.1717345,63.5156627 33.2006493,64.237031 Z" id="Path-8" fill="#896F55"></path>
            <path d="M20.5138163,57.9389827 C20.8823337,58.7189221 24.7865698,59.0615951 28.2945765,59.0615951 C32.1295691,59.0615951 34.7356262,59.2643666 36.1127478,59.6699096 C33.7599829,59.3618894 31.5031094,59.2799494 29.3421272,59.4240895 C27.1811451,59.5682295 24.3693229,59.5360962 20.9066604,59.3276894 L13.7112804,60.1924419 C13.7665587,60.1721501 13.7526207,60.1487981 13.6694665,60.122386 C13.0554999,59.9273728 13.4185705,58.8472132 13.6694665,58.7170373 C16.9584397,57.0105743 23.2999047,54.5053394 23.4936435,54.4892732 C23.5394344,54.4854865 22.5115329,55.2334796 21.6455314,56.2161164 C21.0714619,56.867503 20.3997243,57.6975155 20.5138163,57.9389827 Z" id="Rectangle" fill="#896F55"></path>
            <path d="M19.4578992,59.566079 C20.6407993,59.2455438 21.4523704,59.3409853 22.2754761,59.3409853 C22.8242132,59.3409853 25.4964843,59.3520192 30.2922892,59.374087 C25.9386479,60.0581886 23.4130274,60.6934752 22.7154279,61.279947 C21.931068,61.939358 22.0399505,62.2302119 22.8413247,62.7131352 C23.6426989,63.1960584 22.4023866,62.5856987 22.0936961,62.4572627 C21.6075278,62.2549841 21.3155259,62.033975 21.1468291,61.939358 C20.7331139,61.7073176 19.9297145,61.1814763 19.8715058,61.135414 C19.8132971,61.0893518 18.2749992,59.8866142 19.4578992,59.566079 Z" id="Rectangle" fill="#5E514B"></path>
            <polygon id="Rectangle" fill="#5E514B" points="19.0119973 52.8496549 24.7223309 50.1220919 27.756537 48.8718022 29.3421272 49.3713472 24.7229815 50.9990549"></polygon>
            <path d="M13.5504374,63.7891414 C13.5504374,63.696612 17.1511067,61.698614 17.4770491,61.5641808 C17.6943441,61.4745586 18.5835596,61.1450023 20.1446958,60.5755119 C18.4173681,61.7601862 17.5349507,62.3636989 17.4974436,62.3860499 C17.441183,62.4195765 13.5504374,63.8816707 13.5504374,63.7891414 Z" id="Rectangle" fill="#5E514B"></path>
            <path d="M13.8625344,59.9592672 C13.9359508,59.928987 15.3934792,59.5945281 16.2565932,59.5132914 C16.8320026,59.4591336 18.4353591,59.3972663 21.0666629,59.3276894 C16.2005817,59.88184 13.7487875,60.1700908 13.7112804,60.1924419 C13.6550198,60.2259685 13.5365919,60.0937004 13.8625344,59.9592672 Z" id="Rectangle" fill="#5E514B"></path>
            <path d="M7.34854619,59.4920642 C7.30457751,58.8002044 7.55596151,58.7024087 10.0405579,56.6484211 C11.6969554,55.279096 13.2409842,54.55938 14.6726441,54.4892732 C12.1118011,55.831356 10.738816,56.8764797 10.5536889,57.6246445 C10.1432289,59.2834599 12.521547,60.0624609 13.2336819,60.0224739 C13.9488296,59.9823176 15.1578745,59.6294708 16.045628,59.5401339 C17.2892309,59.4149871 17.7201294,59.6855337 17.708933,59.6922059 C17.6882082,59.7045561 13.7239268,60.196039 12.8601733,60.497731 C12.4648072,60.6358245 11.9501744,60.8426799 11.062652,61.2190272 C11.062652,61.2190272 11.0672596,61.0999019 10.9641489,61.0999019 C10.8610383,61.0999019 9.72506716,61.3199458 9.25911945,61.2643643 C7.81386898,61.0919644 8.47217615,60.6872562 8.30619567,60.2282837 C8.14201274,59.7742819 7.35441049,59.5843407 7.34854619,59.4920642 Z" id="Rectangle" fill="#5E514B"></path>
            <g id="Group" transform="translate(45.720264, 23.686095) rotate(66.000000) translate(-45.720264, -23.686095) translate(35.720264, 9.686095)" fill="#AC8C6C">
                <path d="M5.56883853,19.6961411 C8.64570923,20.6255604 11.2024795,21.5572257 13.2391494,22.4911368 C15.2758193,23.425048 17.2723401,24.6064672 19.2287118,26.0353944 C18.4897043,25.1813615 16.8543514,24.0414118 14.3226532,22.6155452 C11.790955,21.1896786 8.87301679,20.2165439 5.56883853,19.6961411 Z" id="Path-15" transform="translate(12.398775, 22.865768) scale(1, -1) rotate(13.000000) translate(-12.398775, -22.865768) "></path>
                <path d="M2.64772087,1.02854512 C3.06620007,1.16699599 3.3586994,1.2763929 3.52521886,1.35673584 C5.33893916,2.23182658 7.1164459,3.24247943 8.05889453,4.32280009 C9.18258124,5.61087241 9.63193682,6.95465598 9.40696126,8.3541508 C9.76256897,6.49230976 9.1803448,4.92312686 7.66028876,3.6466021 C6.14023272,2.37007734 4.46937676,1.49739168 2.64772087,1.02854512 Z" id="Path-15" transform="translate(6.077906, 4.691348) rotate(-64.000000) translate(-6.077906, -4.691348) "></path>
                <path d="M0.818174782,5.7101427 C3.6608579,6.16776041 5.73193871,6.80269915 7.03141722,7.61495889 C8.60269224,8.59710938 9.70711811,10.1164249 10.3446948,12.1729055 C10.1052565,10.5911866 9.22550927,9.16206477 7.70545323,7.88554001 C6.18539719,6.60901525 3.8896377,5.88388281 0.818174782,5.7101427 Z" id="Path-15" transform="translate(5.581435, 8.941524) rotate(-64.000000) translate(-5.581435, -8.941524) "></path>
                <path d="M0.706690655,10.9930143 C3.3503622,11.3134244 5.32193723,11.8797594 6.62141574,12.6920191 C8.19269077,13.6741696 9.06026815,14.5962672 9.22414789,15.4583119 C9.45840651,15.0710289 8.8155078,14.239125 7.29545175,12.9626003 C5.77539571,11.6860755 3.57914201,11.0295468 0.706690655,10.9930143 Z" id="Path-15" transform="translate(4.988880, 13.225663) rotate(-64.000000) translate(-4.988880, -13.225663) "></path>
                <path d="M1.91430165,16.1261477 C3.94826913,16.2179784 5.69471063,16.5161439 7.15362614,17.0206443 C9.42352105,17.8055855 10.2895924,18.3991983 9.75184018,18.8014827 C10.0024619,18.0776532 9.13315265,17.3913188 7.14391241,16.7424794 C5.15467217,16.0936399 3.41146859,15.8881961 1.91430165,16.1261477 Z" id="Path-15" transform="translate(5.910318, 17.415928) rotate(-64.000000) translate(-5.910318, -17.415928) "></path>
                <path d="M3.21427639,18.0526574 C5.80654667,17.8916593 7.60891154,17.9337324 8.621371,18.1788766 C10.5702788,18.6507607 12.8808563,19.4200264 15.5531032,20.4866738 C13.1400488,19.3068063 11.2276906,18.5236345 9.81602853,18.1371583 C8.4043665,17.7506821 6.20378245,17.7225151 3.21427639,18.0526574 Z" id="Path-15" transform="translate(9.383690, 19.155595) rotate(-64.000000) translate(-9.383690, -19.155595) "></path>
                <path d="M5.54817612,20.1864127 C8.1404464,20.0254147 9.94281127,20.0674878 10.9552707,20.312632 C12.9041786,20.7845161 15.214756,21.5537818 17.887003,22.6204291 C15.4739485,21.4405617 13.5615903,20.6573898 12.1499283,20.2709137 C10.7382662,19.8844375 8.53768218,19.8562705 5.54817612,20.1864127 Z" id="Path-15" transform="translate(11.717590, 21.289350) rotate(-64.000000) translate(-11.717590, -21.289350) "></path>
            </g>
            <g id="Group-2" transform="translate(42.739957, 13.080063)" fill="#896F55">
                <path d="M4.83327378,1.87091823 L5.34215222,2.48476247 C5.12949361,2.76630886 4.94076257,2.91225037 4.77595912,2.922587 C4.61115566,2.93292364 4.41863818,2.79609729 4.19840667,2.51210795 L4.83327378,1.87091823 Z" id="Rectangle" transform="translate(4.770279, 2.397025) rotate(65.000000) translate(-4.770279, -2.397025) "></path>
                <path d="M1.63486711,1 L2.14374554,1.61384424 C1.93108693,1.89539062 1.7423559,2.04133213 1.57755244,2.05166877 C1.41274899,2.06200541 1.22023151,1.92517906 1,1.64118971 L1.63486711,1 Z" id="Rectangle" transform="translate(1.571873, 1.526107) rotate(56.000000) translate(-1.571873, -1.526107) "></path>
                <path d="M7.46211806,3.17121973 L7.9709965,3.78506397 C7.75833789,4.06661036 7.56960685,4.21255187 7.4048034,4.2228885 C7.23999994,4.23322514 7.04748246,4.09639879 6.82725095,3.81240944 L7.46211806,3.17121973 Z" id="Rectangle" transform="translate(7.399124, 3.697326) rotate(85.000000) translate(-7.399124, -3.697326) "></path>
                <path d="M9.23383004,5.17405329 L9.77926299,5.83639263 C9.56660438,6.11793902 9.37787334,6.26388053 9.21306989,6.27421717 C9.04826643,6.2845538 8.8339112,6.14384198 8.57000421,5.85208171 L9.23383004,5.17405329 Z" id="Rectangle" transform="translate(9.174634, 5.724400) rotate(104.000000) translate(-9.174634, -5.724400) "></path>
            </g>
            <g id="Group-2" transform="translate(52.739957, 15.580063) rotate(13.000000) translate(-52.739957, -15.580063) translate(47.739957, 12.080063)" fill="#896F55">
                <path d="M4.55235259,2.06322916 L5.04493143,2.67796823 C4.83227282,2.95951461 4.64354179,3.10545612 4.47873833,3.11579276 C4.31393487,3.1261294 4.12141739,2.98930304 3.90118589,2.7053137 C4.02559085,2.56976048 4.12561939,2.46468539 4.2012715,2.39008845 C4.2769236,2.3154915 4.39395063,2.20653841 4.55235259,2.06322916 Z" id="Rectangle" transform="translate(4.473059, 2.589783) rotate(65.000000) translate(-4.473059, -2.589783) "></path>
                <path d="M1.49564062,1.15572731 L1.99441913,1.80788893 C1.78176052,2.08943532 1.59302948,2.23537683 1.42822603,2.24571346 C1.26342257,2.2560501 1.07090509,2.11922375 0.850673584,1.83523441 C0.99925786,1.65064364 1.11606895,1.51540587 1.20110685,1.42952108 C1.28614474,1.3436363 1.38432267,1.25237171 1.49564062,1.15572731 Z" id="Rectangle" transform="translate(1.422546, 1.700993) rotate(56.000000) translate(-1.422546, -1.700993) "></path>
                <path d="M7.49496277,3.73591049 L7.90820532,4.35130263 C7.69554671,4.63284901 7.50681568,4.77879052 7.34201222,4.78912716 C7.17720877,4.7994638 6.98469128,4.66263744 6.76445978,4.3786481 C6.88378934,4.24880205 6.98908567,4.14372982 7.08034879,4.0634314 C7.1716119,3.98313298 7.30981656,3.87395934 7.49496277,3.73591049 Z" id="Rectangle" transform="translate(7.336333, 4.262791) rotate(85.000000) translate(-7.336333, -4.262791) "></path>
                <path d="M8.50110154,5.56818884 C8.601116,5.63014993 8.68588742,5.68636149 8.7554158,5.73682352 C8.82494419,5.78728555 8.89165483,5.84101604 8.95554774,5.89801499 C8.81197568,6.19615675 8.65778793,6.35039595 8.49298447,6.36073259 C8.32818101,6.37106923 8.16010615,6.22971065 7.98875989,5.93665685 C8.10281621,5.84192348 8.19143741,5.77183559 8.25462347,5.72639317 C8.31780953,5.68095076 8.39996889,5.62821598 8.50110154,5.56818884 Z" id="Rectangle" transform="translate(8.472154, 5.964725) rotate(104.000000) translate(-8.472154, -5.964725) "></path>
            </g>
            <g id="Group-2" transform="translate(39.739957, 15.080063)" fill="#896F55">
                <path d="M3.83327378,1.87091823 L4.34215222,2.48476247 C4.12949361,2.76630886 3.94076257,2.91225037 3.77595912,2.922587 C3.61115566,2.93292364 3.41863818,2.79609729 3.19840667,2.51210795 L3.83327378,1.87091823 Z" id="Rectangle" transform="translate(3.770279, 2.397025) rotate(65.000000) translate(-3.770279, -2.397025) "></path>
                <path d="M0.9117729,1.20007397 L1.44342167,1.83448022 C1.23076306,2.11602661 1.04203203,2.26196812 0.877228571,2.27230476 C0.712425114,2.28264139 0.519907633,2.14581504 0.299676127,1.8618257 L0.9117729,1.20007397 Z" id="Rectangle" transform="translate(0.871549, 1.736462) rotate(56.000000) translate(-0.871549, -1.736462) "></path>
                <path d="M6.39857947,3.14105539 L6.88371997,3.68055862 C6.7191655,3.97971258 6.55448654,4.13445788 6.38968308,4.14479452 C6.22487963,4.15513116 6.04263726,4.03699488 5.84295597,3.7903857 L6.39857947,3.14105539 Z" id="Rectangle" transform="translate(6.363338, 3.643237) rotate(85.000000) translate(-6.363338, -3.643237) "></path>
                <path d="M8.1829331,4.38025859 C8.2829671,4.68361772 8.33917108,4.90903957 8.35154504,5.05652414 C8.37010597,5.277751 8.22214396,5.38548589 8.11461456,5.44955286 C7.92513157,5.56244851 7.75990914,5.45570015 7.61894728,5.1293078 C7.68366067,5.0012995 7.7533533,4.8877082 7.82802515,4.7885339 C7.90269701,4.68935961 8.02099965,4.55326784 8.1829331,4.38025859 Z" id="Rectangle" transform="translate(7.986041, 4.936666) rotate(104.000000) translate(-7.986041, -4.936666) "></path>
            </g>
            <g id="Group-2" transform="translate(40.426017, 25.850299) rotate(-12.000000) translate(-40.426017, -25.850299) translate(33.926017, 21.850299)" fill="#896F55">
                <path d="M5.38396275,1.61113976 L5.78120708,2.22141841 C5.58965441,2.50093502 5.41147635,2.64586164 5.24667289,2.65619828 C5.08186943,2.66653492 4.91394372,2.53999382 4.74289575,2.27657497 C4.85066942,2.14099072 4.94629563,2.03104353 5.02977438,1.94673343 C5.11325313,1.86242332 5.23131592,1.75055876 5.38396275,1.61113976 Z" id="Rectangle" transform="translate(5.262051, 2.133962) rotate(65.000000) translate(-5.262051, -2.133962) "></path>
                <path d="M4.61530876,4.70316444 L5.0586832,5.30183971 C4.84602459,5.58338609 4.65729355,5.7293276 4.49249009,5.73966424 C4.32768664,5.75000088 4.13516916,5.61317452 3.91493765,5.32918518 C4.04405978,5.18559414 4.15036021,5.07164356 4.23383896,4.98733345 C4.31731771,4.90302335 4.44447431,4.80830034 4.61530876,4.70316444 Z" id="Rectangle" transform="translate(4.486810, 5.221687) rotate(65.000000) translate(-4.486810, -5.221687) "></path>
                <path d="M1.91381179,0.726137672 L2.302697,1.40301833 C2.09392411,1.6180214 1.90713594,1.73069126 1.74233248,1.7410279 C1.57752902,1.75136454 1.39677296,1.65590838 1.20006428,1.45465944 C1.30691087,1.32530301 1.42375862,1.19937651 1.55060754,1.07687994 C1.67745645,0.954383373 1.79852453,0.837469282 1.91381179,0.726137672 Z" id="Rectangle" transform="translate(1.751381, 1.233962) rotate(56.000000) translate(-1.751381, -1.233962) "></path>
                <path d="M1.13669186,3.67008978 L1.66834063,4.30449603 C1.45568202,4.58604242 1.26695098,4.73198393 1.10214753,4.74232057 C0.937344069,4.7526572 0.744826588,4.61583085 0.524595083,4.33184151 L1.13669186,3.67008978 Z" id="Rectangle" transform="translate(1.096468, 4.206477) rotate(56.000000) translate(-1.096468, -4.206477) "></path>
                <path d="M8.73855271,3.36255315 L9.17435481,4.0927955 C8.98198409,4.36351075 8.80339701,4.5040367 8.63859355,4.51437334 C8.47379009,4.52470998 8.32545256,4.38469862 8.19358096,4.09433927 L8.73855271,3.36255315 Z" id="Rectangle" transform="translate(8.683968, 3.938730) rotate(85.000000) translate(-8.683968, -3.938730) "></path>
                <path d="M7.44549697,6.38208125 L8.02027532,7.14689905 C7.80761671,7.42844543 7.61888568,7.57438694 7.45408222,7.58472358 C7.28927877,7.59506022 7.10475976,7.43810815 6.90052522,7.11386738 L7.44549697,6.38208125 Z" id="Rectangle" transform="translate(7.460400, 6.983642) rotate(85.000000) translate(-7.460400, -6.983642) "></path>
                <path d="M11.5962583,5.19450983 C11.8089828,5.39580951 11.921532,5.57020163 11.933906,5.7176862 C11.9524669,5.93891306 11.8713017,6.13277566 11.7637723,6.19684263 C11.5742893,6.30973828 11.3986523,6.28141158 11.2368611,6.11186254 L11.422642,5.61782885 L11.5962583,5.19450983 Z" id="Rectangle" transform="translate(11.586710, 5.729520) rotate(104.000000) translate(-11.586710, -5.729520) "></path>
            </g>
            <g id="Group-2" transform="translate(35.739957, 19.080063)" fill="#896F55">
                <path d="M4.67530892,1.15583453 L5.2063144,1.79713305 C4.99365579,2.07867944 4.80492475,2.22462095 4.6401213,2.23495759 C4.47531784,2.24529422 4.30123089,2.11706217 4.11786046,1.85026143 L4.67530892,1.15583453 Z" id="Rectangle" transform="translate(4.662087, 1.695685) rotate(65.000000) translate(-4.662087, -1.695685) "></path>
                <path d="M1.69690141,0.670366514 L2.22855018,1.30477277 C2.01589157,1.58631915 1.82716054,1.73226066 1.66235708,1.7425973 C1.49755362,1.75293394 1.3185182,1.62285963 1.12525082,1.35237439 L1.69690141,0.670366514 Z" id="Rectangle" transform="translate(1.676901, 1.206767) rotate(56.000000) translate(-1.676901, -1.206767) "></path>
                <path d="M7.7672988,2.34201769 C7.84888394,2.37724305 7.92040654,2.40266821 7.98186659,2.41829317 C8.04332664,2.43391813 8.14958477,2.44321451 8.30064099,2.44618232 C8.29335375,2.85835893 8.17136884,3.11517488 7.93468625,3.21663017 C7.69800367,3.31808545 7.49922118,3.25227348 7.33833879,3.01919423 L7.7672988,2.34201769 Z" id="Rectangle" transform="translate(7.819490, 2.802400) rotate(85.000000) translate(-7.819490, -2.802400) "></path>
            </g>
            <path d="M38.9320078,27.0864645 C39.8465038,30.6811115 41.0967656,32.8085053 42.6827931,33.4686462 C44.2688206,34.128787 45.6576987,35.1473275 46.8494275,36.5242679 C46.7549935,36.6462612 46.2780691,36.5768186 45.4186541,36.3159401 C44.6179503,36.0728836 43.2101751,35.9805708 42.8013777,36.473028 C41.9643111,37.4813992 42.1012175,38.6632564 41.8708636,39.0085754 C41.6601427,38.4235367 40.5198642,37.5728997 39.7331644,35.2818202 C39.4389297,34.4249305 38.221413,27.2325357 38.3283398,27.2258322 C38.5156918,27.2140868 38.7169144,27.1676309 38.9320078,27.0864645 Z" id="Rectangle" fill="#896F55" transform="translate(42.585568, 33.047520) scale(1, -1) rotate(-77.000000) translate(-42.585568, -33.047520) "></path>
            <path d="M37.6605238,37.6440262 C37.3475259,39.2130646 37.6595687,40.3796702 38.5966521,41.1438432 C39.2336437,41.6632972 40.3563193,42.9748747 42.0610238,43.5186494 C42.7218865,43.7294545 43.276909,43.8799793 43.7260912,43.9702238 C43.2920408,44.1263955 42.395949,44.1569742 41.037816,44.0619601 C39.679683,43.966946 38.2559829,43.3842563 36.7667155,42.3138911 L37.6605238,37.6440262 Z" id="Rectangle" fill="#5E514B"></path>
            <path d="M25.9329073,26.0192176 L29.9858305,26.0192176 L29.9858305,49.3713472 C29.5687846,50.0031801 28.9325041,50.1215463 28.0769892,49.726446 C23.9824017,47.8354531 22.4578935,45.3138071 22.4578935,44.2783479 C22.4578935,43.5865737 22.7231512,43.0547593 23.2536667,42.6829046 C22.4988542,42.2809553 22.121448,41.7491409 22.121448,41.0874614 C22.121448,40.4257818 22.6960117,39.9082318 23.8451393,39.5348111 C22.6189834,39.1407073 22.0059055,38.4643637 22.0059055,37.5057805 C22.0059055,36.9252905 22.7296244,35.9466251 24.1770623,34.5697844 C22.9269288,34.1142979 22.4127378,33.1631626 22.6344894,31.7163786 C22.8626461,30.2278047 23.9621188,28.328751 25.9329073,26.0192176 Z" id="Rectangle" fill="#896F55"></path>
            <path d="M26.045184,21.2598894 C25.6003702,22.5669002 25.4583974,23.5410963 25.6192657,24.182478 C25.7801341,24.8238596 25.9221068,25.6933964 26.045184,26.7910882 C24.1906204,29.6935924 23.3401069,31.5923051 23.4936435,32.4872264 C23.6471801,33.3821477 24.3557209,34.0484874 25.6192657,34.4862455 C23.8792245,35.8781147 23.0092039,36.9317386 23.0092039,37.6471174 C23.0092039,38.3624961 23.8792245,38.9692929 25.6192657,39.4675079 C24.0389332,40.1921951 23.1689126,40.7497922 23.0092039,41.1402992 C22.8494952,41.5308062 23.278781,42.0508588 24.2970613,42.7004571 C23.4835583,43.1671827 23.2157524,43.8780295 23.4936435,44.8329974 C23.9104801,46.2654493 27.1320477,48.3916603 29.1981603,49.7495838 C31.264273,51.1075072 33.2328054,51.4876148 34.7667155,51.4876148 C36.3006255,51.4876148 39.2225752,50.943256 40.3445325,50.2905633 C41.4664898,49.6378705 42.5810427,48.8015283 42.0610238,47.2441896 C41.7143445,46.2059637 40.1870915,43.0069397 37.4792648,37.6471174 C37.5418693,35.7029259 37.4202852,34.2595583 37.1145126,33.3170144 C35.0337005,26.902912 31.9959197,22.4010126 30.0421347,20.2563084 C26.4654684,16.3301389 26.4231724,18.1092799 26.045184,17.7589111 C25.7931917,17.5253319 25.7931917,18.6923247 26.045184,21.2598894 Z" id="Path" stroke="#AD8C6A" fill="#AC8C6C"></path>
            <path d="M34.5476092,31.6030005 C34.6175504,32.6788584 33.0691234,34.3998925 33.4352627,35.3138911 C34.0714216,36.9019439 35.4253269,36.9199766 35.5118233,38.5158625 C35.7355298,42.643318 32.5846527,43.4439884 36.1127478,44.8329974 C39.4198638,46.1350071 39.2225752,50.943256 40.3445325,50.2905633 C41.4664898,49.6378705 42.5810427,48.8015283 42.0610238,47.2441896 C41.7143445,46.2059637 40.1870915,43.0069397 37.4792648,37.6471174 C37.5424955,35.7020211 37.4209114,34.2586534 37.1145126,33.3170144 C33.976933,23.674459 30.437477,20.9379622 28.483692,18.793258 C24.9070257,14.8670885 34.3203954,28.1079265 34.5476092,31.6030005 Z" id="Path" stroke="#D0C1A8" fill="#D0C1A8"></path>
            <path d="M27.2183359,14.8079597 C26.9312729,14.7858515 26.651649,15.7381359 26.3794643,17.6648127 L26.2963709,18.0922913 C26.5960727,18.514854 26.8194782,18.8112158 26.9665873,18.9813765 C27.1397763,19.1817038 28.94528,23.466153 32.3830985,31.834724 C32.4785865,31.3313299 32.5263304,30.7113822 32.5263304,29.974881 C32.5263304,27.9315718 28.1720854,14.8814127 27.2183359,14.8079597 Z" id="Left-Wing-Shadow" fill="#896F55" transform="translate(29.411351, 23.321154) rotate(-11.000000) translate(-29.411351, -23.321154) "></path>
            <path d="M23.729905,41.4769993 C27.2748911,41.9904835 29.7660058,42.6888283 31.2032489,43.5720337 C32.640492,44.4552392 34.1716545,45.478401 35.7967361,46.6415192 C33.7530076,44.9290744 32.3373072,43.7877738 31.5496351,43.2176174 C30.761963,42.647461 28.1553863,42.067255 23.729905,41.4769993 Z" id="Path-15" fill="#896F55" transform="translate(29.763321, 44.059259) scale(-1, 1) rotate(-35.000000) translate(-29.763321, -44.059259) "></path>
            <path d="M24.74761,38.0878425 C27.2079868,38.6836866 28.9813866,39.2632293 30.0678095,39.8264707 C31.1542324,40.389712 32.5165875,41.3436433 34.1548747,42.6882645 C32.6012169,41.2737995 31.4305519,40.2814888 30.6428798,39.7113324 C29.8552077,39.141176 27.8901178,38.6000127 24.74761,38.0878425 Z" id="Path-15" fill="#896F55" transform="translate(29.451242, 40.388053) scale(-1, 1) rotate(-35.000000) translate(-29.451242, -40.388053) "></path>
            <path d="M25.0688362,32.9300813 C26.5896996,33.321951 27.9009172,33.8553052 29.0024892,34.5301438 C30.1040611,35.2049824 31.2556466,36.0828011 32.4572455,37.1635999 C31.0702372,35.7946154 29.982897,34.825045 29.1952249,34.2548886 C28.4075528,33.6847322 27.0320899,33.2431298 25.0688362,32.9300813 Z" id="Path-15" fill="#896F55" transform="translate(28.763041, 35.046841) scale(-1, 1) rotate(-35.000000) translate(-28.763041, -35.046841) "></path>
            <path d="M25.970212,24.9467297 C26.3270244,25.0637101 27.0562165,25.4596197 28.1577885,26.1344583 C29.2593604,26.8092969 30.18737,27.5737725 30.9418171,28.427885 C30.0636019,27.3767184 29.2306583,26.5660569 28.4429862,25.9959005 C27.6553141,25.4257441 26.831056,25.0760205 25.970212,24.9467297 Z" id="Path-15" fill="#896F55" transform="translate(28.456015, 26.687307) scale(-1, 1) rotate(-35.000000) translate(-28.456015, -26.687307) "></path>
            <path d="M13.5238065,43.5592377 C17.4012505,43.8713817 20.0635297,44.3768732 21.5106442,45.0757121 C22.9577587,45.774551 24.7100028,46.6560483 26.7673766,47.7202039 C24.2855694,46.2416683 22.6508297,45.2173224 21.8631576,44.6471659 C21.0754855,44.0770095 18.2957018,43.7143668 13.5238065,43.5592377 Z" id="Path-15" fill="#AC8C6C" transform="translate(20.145592, 45.639721) scale(-1, 1) rotate(1.000000) translate(-20.145592, -45.639721) "></path>
            <g id="Wing-Tip-" transform="translate(14.784187, 6.274781)">
                <path d="M2.74947758,4.87386277 C1.40070565,4.58046267 -8.8817842e-16,4.75657883 -8.8817842e-16,5.53712678 C-8.8817842e-16,6.31767473 0.011228508,8.45331891 4.353034,11.1537389 C4.94383455,11.521192 6.59047316,12.4295195 8.19253735,12.4295195 C9.79460154,12.4295195 13.2349296,12.8418288 12.7903915,11.775694 C9.83556323,4.68913399 3.23333848,4.97911766 2.74947758,4.87386277 Z" id="Path-2" fill="#896F55"></path>
                <path d="M1.65003708,0.00194330887 C0.842233449,-0.0674238722 1.12488926,1.72027573 2.49800452,5.36504213 C0.611807014,4.86104729 0.0923663613,5.41504048 0.939682564,7.02702171 C2.21065687,9.44499355 4.04056653,10.7010701 5.76093688,11.5726252 C6.90785045,12.1536619 9.35264962,12.2530358 13.0953344,11.8707467 C11.8575219,9.35771085 10.5427486,7.37957694 9.1510145,5.93634501 C7.06341334,3.77149712 2.86174253,0.10599408 1.65003708,0.00194330887 Z" id="Left-Wing-Tip" fill="#D0C1A8"></path>
                <path d="M2.96962041,2.12254837 C4.64328989,2.12254837 8.09341786,5.27875779 9.27215402,6.16406859 C10.0579781,6.75427579 11.0013012,8.02143949 12.1021233,9.96555968 C9.07901799,10.757001 6.60790153,10.9394148 4.68877394,10.5128011 C1.81008255,9.8728805 -0.00677335896,5.98794631 0.706139454,5.36504213 C1.18141466,4.94977267 1.77870302,4.94977267 2.49800452,5.36504213 C1.69663546,3.20337962 1.85384076,2.12254837 2.96962041,2.12254837 Z" id="Rectangle" fill="#AC8C6C"></path>
                <path d="M3.62876523,3.79049328 C3.3866367,3.72420787 3.35093393,4.03044327 3.52340718,4.61132933 C3.5874718,4.82709755 4.39423172,8.78451973 4.40041291,8.16475479 C4.41568885,6.63309184 4.18994862,4.06526051 4.12734564,3.76708538 C4.06474267,3.46891026 3.79163184,3.9916168 3.79163184,3.9916168 C3.69891866,4.06784587 3.65462453,3.79757256 3.62876523,3.79049328 Z" id="Left-Wing-Shadow" fill="#896F55" transform="translate(3.908632, 5.952858) rotate(-51.000000) translate(-3.908632, -5.952858) "></path>
            </g>
            <path d="M25.6909415,47.0055683 C27.3340817,47.7715575 27.7361736,46.9482973 30.2922892,47.0055683 C32.5694381,47.056589 38.0917082,50.3399401 38.8347561,50.5712848 C39.3301214,50.7255146 40.0644747,50.6521333 41.037816,50.351141 C40.6749889,50.6787488 40.2883379,50.8990822 39.8778631,51.0121414 C38.301144,51.446425 36.1210335,51.6106696 34.8532119,51.6106696 C32.2088489,51.6106696 30.7561361,50.8487528 29.3421272,50.1052686 C27.9281184,49.3617844 21.0305119,44.8329974 25.6909415,47.0055683 Z" id="Rectangle" fill="#D0C1A8"></path>
        </g>
    </g>
</svg>